<svg xmlns="http://www.w3.org/2000/svg" xmlns:xlink="http://www.w3.org/1999/xlink" width="200" height="47" viewBox="0 0 200 47">
  <defs>
    <clipPath id="clip-path">
      <rect id="Rectangle_57" data-name="Rectangle 57" width="200" height="47" transform="translate(264)" fill="#e8ff00" stroke="#707070" stroke-width="1"/>
    </clipPath>
  </defs>
  <g id="Mask_Group_1" data-name="Mask Group 1" transform="translate(-264)" clip-path="url(#clip-path)">
    <g id="_937b312ac452484" data-name="937b312ac452484" transform="translate(264 3.139)">
      <path id="Path_66" data-name="Path 66" d="M194.408,40.238l5.567,3.711a16.258,16.258,0,0,1-13.6,7.226,15.961,15.961,0,0,1-16.186-16.308c0-9.717,6.982-16.309,15.405-16.309,8.472,0,12.622,6.738,13.965,10.376l.732,1.855-21.826,9.033a8.271,8.271,0,0,0,7.91,4.932,9.291,9.291,0,0,0,8.032-4.517Zm-17.114-5.884L191.869,28.3c-.806-2.026-3.2-3.467-6.055-3.467a8.964,8.964,0,0,0-8.521,9.521Z" transform="translate(-0.292 -14.226)" fill="#ff302f"/>
      <path id="Path_67" data-name="Path 67" d="M159.667,1.933H166.7V49.686h-7.031V1.933Z" transform="translate(-0.292 -5.616)" fill="#20b15a"/>
      <path id="Path_68" data-name="Path 68" d="M148.583,19.828h6.787v29c0,12.036-7.1,16.992-15.5,16.992a15.534,15.534,0,0,1-14.453-9.643l6.225-2.588a9.039,9.039,0,0,0,8.227,5.811c5.4,0,8.716-3.345,8.716-9.595V47.465h-.244a11.2,11.2,0,0,1-8.594,3.711c-8.154,0-15.625-7.1-15.625-16.26,0-9.2,7.471-16.382,15.625-16.382a11.378,11.378,0,0,1,8.594,3.638h.244V19.828Zm.488,15.088c0-5.762-3.833-9.961-8.716-9.961-4.932,0-9.082,4.2-9.082,9.961,0,5.688,4.15,9.814,9.082,9.814,4.883.025,8.716-4.126,8.716-9.814Z" transform="translate(-0.292 -21.985)" fill="#3686f7"/>
      <path id="Path_69" data-name="Path 69" d="M85.521,34.794a16.309,16.309,0,0,1-32.617,0,16.309,16.309,0,1,1,32.617,0Zm-7.129,0c0-5.859-4.248-9.888-9.18-9.888s-9.18,4.028-9.18,9.888c0,5.81,4.248,9.888,9.18,9.888s9.18-4.077,9.18-9.888Z" transform="translate(-0.292 -14.162)" fill="#ff302f"/>
      <path id="Path_70" data-name="Path 70" d="M121.141,34.867a16.309,16.309,0,0,1-32.617,0,16.309,16.309,0,1,1,32.617,0Zm-7.154,0c0-5.859-4.248-9.888-9.18-9.888s-9.18,4.028-9.18,9.888c0,5.81,4.248,9.888,9.18,9.888,4.956,0,9.18-4.1,9.18-9.888Z" transform="translate(-0.292 -14.226)" fill="#ffba40"/>
      <path id="Path_71" data-name="Path 71" d="M26.1,44.022A18.246,18.246,0,0,1,7.86,25.541,18.246,18.246,0,0,1,26.1,7.059a17.742,17.742,0,0,1,12.524,4.956l4.907-4.907A24.213,24.213,0,0,0,26.1.1C12.084.1.292,11.527.292,25.541S12.084,50.98,26.1,50.98c7.568,0,13.281-2.49,17.749-7.129,4.59-4.59,6.006-11.035,6.006-16.26a27.492,27.492,0,0,0-.415-4.565H26.1v6.787H42.723c-.488,4.248-1.831,7.153-3.809,9.131-2.393,2.417-6.177,5.078-12.817,5.078Z" transform="translate(-0.292 -5.347)" fill="#3686f7"/>
    </g>
  </g>
</svg>
