<svg xmlns="http://www.w3.org/2000/svg" xmlns:xlink="http://www.w3.org/1999/xlink" width="1383" height="839" viewBox="0 0 1383 839">
  <defs>
    <linearGradient id="linear-gradient" x1="0.047" y1="0.356" x2="0.902" y2="0.609" gradientUnits="objectBoundingBox">
      <stop offset="0"/>
      <stop offset="1" stop-color="#fea905"/>
    </linearGradient>
  </defs>
  <g id="Group_504" data-name="Group 504" transform="translate(-245 -5270)">
    <path id="Subtraction_7" data-name="Subtraction 7" d="M-367.5,586.445a23.675,23.675,0,0,1-4.736-.477,23.387,23.387,0,0,1-4.411-1.369,23.5,23.5,0,0,1-3.992-2.167,23.669,23.669,0,0,1-3.478-2.87,23.668,23.668,0,0,1-2.87-3.478,23.5,23.5,0,0,1-2.167-3.992,23.381,23.381,0,0,1-1.369-4.411,23.671,23.671,0,0,1-.477-4.736,23.67,23.67,0,0,1,.477-4.736,23.379,23.379,0,0,1,1.369-4.411,23.5,23.5,0,0,1,2.167-3.992,23.669,23.669,0,0,1,2.87-3.478,23.666,23.666,0,0,1,3.478-2.87,23.5,23.5,0,0,1,3.992-2.167,23.379,23.379,0,0,1,4.411-1.369,23.671,23.671,0,0,1,4.736-.477,23.672,23.672,0,0,1,4.736.477,23.38,23.38,0,0,1,4.411,1.369,23.5,23.5,0,0,1,3.992,2.167,23.663,23.663,0,0,1,3.478,2.87,23.661,23.661,0,0,1,2.87,3.478,23.5,23.5,0,0,1,2.167,3.992,23.377,23.377,0,0,1,1.369,4.411,23.67,23.67,0,0,1,.477,4.736,23.671,23.671,0,0,1-.477,4.736,23.379,23.379,0,0,1-1.369,4.411,23.5,23.5,0,0,1-2.167,3.992,23.665,23.665,0,0,1-2.87,3.478,23.666,23.666,0,0,1-3.478,2.87,23.5,23.5,0,0,1-3.992,2.167,23.387,23.387,0,0,1-4.411,1.369A23.676,23.676,0,0,1-367.5,586.445Zm0-41.125a17.7,17.7,0,0,0-17.74,17.625A17.7,17.7,0,0,0-367.5,580.57a17.7,17.7,0,0,0,17.74-17.625A17.7,17.7,0,0,0-367.5,545.321Z" transform="translate(1637 4827.555)" fill="url(#linear-gradient)"/>
    <path id="Subtraction_11" data-name="Subtraction 11" d="M-367.5,586.445a23.675,23.675,0,0,1-4.736-.477,23.387,23.387,0,0,1-4.411-1.369,23.5,23.5,0,0,1-3.992-2.167,23.669,23.669,0,0,1-3.478-2.87,23.668,23.668,0,0,1-2.87-3.478,23.5,23.5,0,0,1-2.167-3.992,23.381,23.381,0,0,1-1.369-4.411,23.671,23.671,0,0,1-.477-4.736,23.67,23.67,0,0,1,.477-4.736,23.379,23.379,0,0,1,1.369-4.411,23.5,23.5,0,0,1,2.167-3.992,23.669,23.669,0,0,1,2.87-3.478,23.666,23.666,0,0,1,3.478-2.87,23.5,23.5,0,0,1,3.992-2.167,23.379,23.379,0,0,1,4.411-1.369,23.671,23.671,0,0,1,4.736-.477,23.672,23.672,0,0,1,4.736.477,23.38,23.38,0,0,1,4.411,1.369,23.5,23.5,0,0,1,3.992,2.167,23.663,23.663,0,0,1,3.478,2.87,23.661,23.661,0,0,1,2.87,3.478,23.5,23.5,0,0,1,2.167,3.992,23.377,23.377,0,0,1,1.369,4.411,23.67,23.67,0,0,1,.477,4.736,23.671,23.671,0,0,1-.477,4.736,23.379,23.379,0,0,1-1.369,4.411,23.5,23.5,0,0,1-2.167,3.992,23.665,23.665,0,0,1-2.87,3.478,23.666,23.666,0,0,1-3.478,2.87,23.5,23.5,0,0,1-3.992,2.167,23.387,23.387,0,0,1-4.411,1.369A23.676,23.676,0,0,1-367.5,586.445Zm0-41.125a17.7,17.7,0,0,0-17.74,17.625A17.7,17.7,0,0,0-367.5,580.57a17.7,17.7,0,0,0,17.74-17.625A17.7,17.7,0,0,0-367.5,545.321Z" transform="translate(1957 5418.555)" fill="url(#linear-gradient)"/>
    <path id="Subtraction_12" data-name="Subtraction 12" d="M-367.5,586.445a23.675,23.675,0,0,1-4.736-.477,23.387,23.387,0,0,1-4.411-1.369,23.5,23.5,0,0,1-3.992-2.167,23.669,23.669,0,0,1-3.478-2.87,23.668,23.668,0,0,1-2.87-3.478,23.5,23.5,0,0,1-2.167-3.992,23.381,23.381,0,0,1-1.369-4.411,23.671,23.671,0,0,1-.477-4.736,23.67,23.67,0,0,1,.477-4.736,23.379,23.379,0,0,1,1.369-4.411,23.5,23.5,0,0,1,2.167-3.992,23.669,23.669,0,0,1,2.87-3.478,23.666,23.666,0,0,1,3.478-2.87,23.5,23.5,0,0,1,3.992-2.167,23.379,23.379,0,0,1,4.411-1.369,23.671,23.671,0,0,1,4.736-.477,23.672,23.672,0,0,1,4.736.477,23.38,23.38,0,0,1,4.411,1.369,23.5,23.5,0,0,1,3.992,2.167,23.663,23.663,0,0,1,3.478,2.87,23.661,23.661,0,0,1,2.87,3.478,23.5,23.5,0,0,1,2.167,3.992,23.377,23.377,0,0,1,1.369,4.411,23.67,23.67,0,0,1,.477,4.736,23.671,23.671,0,0,1-.477,4.736,23.379,23.379,0,0,1-1.369,4.411,23.5,23.5,0,0,1-2.167,3.992,23.665,23.665,0,0,1-2.87,3.478,23.666,23.666,0,0,1-3.478,2.87,23.5,23.5,0,0,1-3.992,2.167,23.387,23.387,0,0,1-4.411,1.369A23.676,23.676,0,0,1-367.5,586.445Zm0-41.125a17.7,17.7,0,0,0-17.74,17.625A17.7,17.7,0,0,0-367.5,580.57a17.7,17.7,0,0,0,17.74-17.625A17.7,17.7,0,0,0-367.5,545.321Z" transform="translate(762 4745.555)" fill="url(#linear-gradient)"/>
    <path id="Subtraction_8" data-name="Subtraction 8" d="M-367.5,586.445a23.675,23.675,0,0,1-4.736-.477,23.387,23.387,0,0,1-4.411-1.369,23.5,23.5,0,0,1-3.992-2.167,23.669,23.669,0,0,1-3.478-2.87,23.668,23.668,0,0,1-2.87-3.478,23.5,23.5,0,0,1-2.167-3.992,23.381,23.381,0,0,1-1.369-4.411,23.671,23.671,0,0,1-.477-4.736,23.67,23.67,0,0,1,.477-4.736,23.379,23.379,0,0,1,1.369-4.411,23.5,23.5,0,0,1,2.167-3.992,23.669,23.669,0,0,1,2.87-3.478,23.666,23.666,0,0,1,3.478-2.87,23.5,23.5,0,0,1,3.992-2.167,23.379,23.379,0,0,1,4.411-1.369,23.671,23.671,0,0,1,4.736-.477,23.672,23.672,0,0,1,4.736.477,23.38,23.38,0,0,1,4.411,1.369,23.5,23.5,0,0,1,3.992,2.167,23.663,23.663,0,0,1,3.478,2.87,23.661,23.661,0,0,1,2.87,3.478,23.5,23.5,0,0,1,2.167,3.992,23.377,23.377,0,0,1,1.369,4.411,23.67,23.67,0,0,1,.477,4.736,23.671,23.671,0,0,1-.477,4.736,23.379,23.379,0,0,1-1.369,4.411,23.5,23.5,0,0,1-2.167,3.992,23.665,23.665,0,0,1-2.87,3.478,23.666,23.666,0,0,1-3.478,2.87,23.5,23.5,0,0,1-3.992,2.167,23.387,23.387,0,0,1-4.411,1.369A23.676,23.676,0,0,1-367.5,586.445Zm0-41.125a17.7,17.7,0,0,0-17.74,17.625A17.7,17.7,0,0,0-367.5,580.57a17.7,17.7,0,0,0,17.74-17.625A17.7,17.7,0,0,0-367.5,545.321Z" transform="translate(651 5507.555)" fill="url(#linear-gradient)"/>
    <path id="Subtraction_9" data-name="Subtraction 9" d="M-367.5,586.445a23.675,23.675,0,0,1-4.736-.477,23.387,23.387,0,0,1-4.411-1.369,23.5,23.5,0,0,1-3.992-2.167,23.669,23.669,0,0,1-3.478-2.87,23.668,23.668,0,0,1-2.87-3.478,23.5,23.5,0,0,1-2.167-3.992,23.381,23.381,0,0,1-1.369-4.411,23.671,23.671,0,0,1-.477-4.736,23.67,23.67,0,0,1,.477-4.736,23.379,23.379,0,0,1,1.369-4.411,23.5,23.5,0,0,1,2.167-3.992,23.669,23.669,0,0,1,2.87-3.478,23.666,23.666,0,0,1,3.478-2.87,23.5,23.5,0,0,1,3.992-2.167,23.379,23.379,0,0,1,4.411-1.369,23.671,23.671,0,0,1,4.736-.477,23.672,23.672,0,0,1,4.736.477,23.38,23.38,0,0,1,4.411,1.369,23.5,23.5,0,0,1,3.992,2.167,23.663,23.663,0,0,1,3.478,2.87,23.661,23.661,0,0,1,2.87,3.478,23.5,23.5,0,0,1,2.167,3.992,23.377,23.377,0,0,1,1.369,4.411,23.67,23.67,0,0,1,.477,4.736,23.671,23.671,0,0,1-.477,4.736,23.379,23.379,0,0,1-1.369,4.411,23.5,23.5,0,0,1-2.167,3.992,23.665,23.665,0,0,1-2.87,3.478,23.666,23.666,0,0,1-3.478,2.87,23.5,23.5,0,0,1-3.992,2.167,23.387,23.387,0,0,1-4.411,1.369A23.676,23.676,0,0,1-367.5,586.445Zm0-41.125a17.7,17.7,0,0,0-17.74,17.625A17.7,17.7,0,0,0-367.5,580.57a17.7,17.7,0,0,0,17.74-17.625A17.7,17.7,0,0,0-367.5,545.321Z" transform="translate(947 5074.555)" fill="url(#linear-gradient)"/>
    <path id="Subtraction_10" data-name="Subtraction 10" d="M-367.5,586.445a23.675,23.675,0,0,1-4.736-.477,23.387,23.387,0,0,1-4.411-1.369,23.5,23.5,0,0,1-3.992-2.167,23.669,23.669,0,0,1-3.478-2.87,23.668,23.668,0,0,1-2.87-3.478,23.5,23.5,0,0,1-2.167-3.992,23.381,23.381,0,0,1-1.369-4.411,23.671,23.671,0,0,1-.477-4.736,23.67,23.67,0,0,1,.477-4.736,23.379,23.379,0,0,1,1.369-4.411,23.5,23.5,0,0,1,2.167-3.992,23.669,23.669,0,0,1,2.87-3.478,23.666,23.666,0,0,1,3.478-2.87,23.5,23.5,0,0,1,3.992-2.167,23.379,23.379,0,0,1,4.411-1.369,23.671,23.671,0,0,1,4.736-.477,23.672,23.672,0,0,1,4.736.477,23.38,23.38,0,0,1,4.411,1.369,23.5,23.5,0,0,1,3.992,2.167,23.663,23.663,0,0,1,3.478,2.87,23.661,23.661,0,0,1,2.87,3.478,23.5,23.5,0,0,1,2.167,3.992,23.377,23.377,0,0,1,1.369,4.411,23.67,23.67,0,0,1,.477,4.736,23.671,23.671,0,0,1-.477,4.736,23.379,23.379,0,0,1-1.369,4.411,23.5,23.5,0,0,1-2.167,3.992,23.665,23.665,0,0,1-2.87,3.478,23.666,23.666,0,0,1-3.478,2.87,23.5,23.5,0,0,1-3.992,2.167,23.387,23.387,0,0,1-4.411,1.369A23.676,23.676,0,0,1-367.5,586.445Zm0-41.125a17.7,17.7,0,0,0-17.74,17.625A17.7,17.7,0,0,0-367.5,580.57a17.7,17.7,0,0,0,17.74-17.625A17.7,17.7,0,0,0-367.5,545.321Z" transform="translate(1479 5227.555)" fill="url(#linear-gradient)"/>
  </g>
</svg>
