<svg xmlns="http://www.w3.org/2000/svg" width="55" height="55" viewBox="0 0 55 55">
  <g id="Group_157" data-name="Group 157" transform="translate(-8305 -2470.484)">
    <circle id="Ellipse_62" data-name="Ellipse 62" cx="27.5" cy="27.5" r="27.5" transform="translate(8305 2470.484)" fill="#d8d8d8" opacity="0.5"/>
    <path id="reverbnation" d="M23.422,9.4,14.5,9.369,11.682.855,8.923,9.369,0,9.4H.03l7.189,5.226L4.433,23.162h.029l7.279-5.256,7.218,5.256-2.786-8.52L23.422,9.39" transform="translate(8321 2485.629)"/>
    <g id="bx-certification" transform="translate(8316 2480.484)">
      <path id="Path_104" data-name="Path 104" d="M6.588,23.122,9.23,24.651a1.711,1.711,0,0,1,.853,1.482v3.039h3.039a1.709,1.709,0,0,1,1.482.856l1.526,2.64,2.64-1.529a1.721,1.721,0,0,1,1.712,0l2.643,1.529,1.525-2.64a1.711,1.711,0,0,1,1.482-.856h3.039V26.133a1.711,1.711,0,0,1,.853-1.482l2.642-1.529-1.529-2.64a1.711,1.711,0,0,1,0-1.712l1.529-2.64L30.026,14.6a1.711,1.711,0,0,1-.853-1.482v-3.04H26.134a1.708,1.708,0,0,1-1.482-.856l-1.525-2.64L20.483,8.11a1.708,1.708,0,0,1-1.711,0L16.13,6.584,14.6,9.224a1.713,1.713,0,0,1-1.482.856H10.083v3.039A1.711,1.711,0,0,1,9.23,14.6L6.588,16.127l1.529,2.639a1.7,1.7,0,0,1,0,1.712L6.588,23.121Z" transform="translate(-2.537 -2.53)" fill="none"/>
      <path id="Path_105" data-name="Path 105" d="M3.1,24.688a1.7,1.7,0,0,0,.8,1.038l3.268,1.889v3.762a1.711,1.711,0,0,0,1.711,1.711h3.762l1.889,3.268a1.714,1.714,0,0,0,2.34.626l3.265-1.889L23.4,36.984a1.712,1.712,0,0,0,2.338-.626l1.888-3.267h3.762A1.711,1.711,0,0,0,33.1,31.379V27.617l3.268-1.889a1.711,1.711,0,0,0,.624-2.338L35.1,20.123l1.889-3.265a1.711,1.711,0,0,0-.624-2.338L33.1,12.631V8.866a1.711,1.711,0,0,0-1.711-1.711H27.624L25.736,3.888a1.718,1.718,0,0,0-1.038-.8,1.7,1.7,0,0,0-1.3.171L20.13,5.151,16.863,3.262a1.708,1.708,0,0,0-2.338.624L12.636,7.154H8.872A1.711,1.711,0,0,0,7.161,8.865v3.762L3.893,14.517a1.708,1.708,0,0,0-.624,2.339l1.889,3.265L3.269,23.386a1.707,1.707,0,0,0-.171,1.3Zm5.517-5.421-1.526-2.64L9.73,15.1a1.711,1.711,0,0,0,.853-1.482V10.58h3.039A1.709,1.709,0,0,0,15.1,9.724l1.526-2.64,2.642,1.526a1.708,1.708,0,0,0,1.711,0l2.643-1.526,1.525,2.64a1.711,1.711,0,0,0,1.482.856h3.039v3.039a1.711,1.711,0,0,0,.853,1.482L33.17,16.63l-1.529,2.64a1.711,1.711,0,0,0,0,1.712l1.529,2.64L30.527,25.15a1.711,1.711,0,0,0-.853,1.482v3.039H26.635a1.708,1.708,0,0,0-1.482.856l-1.525,2.64-2.643-1.529a1.711,1.711,0,0,0-1.712,0l-2.64,1.529-1.526-2.64a1.715,1.715,0,0,0-1.482-.856h-3.04V26.632A1.711,1.711,0,0,0,9.73,25.15L7.088,23.622l1.529-2.64a1.711,1.711,0,0,0,0-1.715Z" transform="translate(-3.037 -3.03)"/>
    </g>
  </g>
</svg>
