<svg xmlns="http://www.w3.org/2000/svg" xmlns:xlink="http://www.w3.org/1999/xlink" width="200" height="59" viewBox="0 0 200 59">
  <defs>
    <clipPath id="clip-path">
      <rect id="Rectangle_53" data-name="Rectangle 53" width="200" height="59" transform="translate(1584 0.136)" fill="#ac5d03" stroke="#707070" stroke-width="1"/>
    </clipPath>
  </defs>
  <g id="Mask_Group_3" data-name="Mask Group 3" transform="translate(-1584 -0.136)" clip-path="url(#clip-path)">
    <g id="b2bb930907d7494" transform="translate(1584 8.899)">
      <path id="Path_77" data-name="Path 77" d="M38.553,17.67H21.733a.713.713,0,0,0-.786.6v6.272a.713.713,0,0,0,.786.6h6.562v7.793a25.779,25.779,0,0,1-5.547.383c-4.806,0-11.519-1.339-11.519-12.6S18.219,7.977,24.782,7.977a34.137,34.137,0,0,1,9.686,1.13.758.758,0,0,0,.942-.588l1.876-6.06a.523.523,0,0,0-.3-.468C36.353,1.647,32.495,0,22.748,0,11.518,0,0,3.644,0,21.159S13.188,41.285,24.3,41.285c9.2,0,14.783-3,14.783-3a.466.466,0,0,0,.255-.455V18.27A.712.712,0,0,0,38.553,17.67Zm86.64-15.478a.707.707,0,0,0-.78-.6h-9.471a.712.712,0,0,0-.784.6s0,13.959,0,13.959H99.4V2.192a.708.708,0,0,0-.782-.6H89.145a.711.711,0,0,0-.782.6v37.8a.712.712,0,0,0,.782.605h9.471a.71.71,0,0,0,.782-.605V23.822H114.16s-.026,16.166-.026,16.167a.713.713,0,0,0,.784.605h9.494a.71.71,0,0,0,.781-.605Zm-68.8,5.053c0-2.6-2.734-4.7-6.107-4.7s-6.106,2.1-6.106,4.7,2.736,4.706,6.106,4.706S56.395,9.844,56.395,7.246Zm-.752,24.79V14.589a.712.712,0,0,0-.784-.6H45.419a.8.8,0,0,0-.821.672v25c0,.735.6.953,1.377.953h8.506c.933,0,1.162-.349,1.162-.965ZM161.391,13.987h-9.4a.711.711,0,0,0-.782.6V33.124a12.9,12.9,0,0,1-5.777,1.332c-3.389,0-4.288-1.173-4.288-3.7V14.591a.711.711,0,0,0-.782-.6h-9.539a.713.713,0,0,0-.783.6V31.977c0,7.517,5.493,9.355,13.05,9.355a26.8,26.8,0,0,0,11.2-2.612,11.877,11.877,0,0,0,.346,1.54.88.88,0,0,0,.691.327l6.068-.02a.713.713,0,0,0,.783-.6l0-25.373A.712.712,0,0,0,161.391,13.987Zm21.654,20.484a13.8,13.8,0,0,1-5.471-1.2V21.3a15.233,15.233,0,0,1,4.858-1.2c3.384-.231,6.646.549,6.646,6.706C189.078,33.294,187.606,34.576,183.046,34.471Zm3.707-21.3a21.787,21.787,0,0,0-8.969,1.816V2.192a.709.709,0,0,0-.782-.6h-9.5a.71.71,0,0,0-.783.6v37.8a.713.713,0,0,0,.784.605h6.59a.842.842,0,0,0,.687-.321,9.245,9.245,0,0,0,.4-1.743s3.884,2.807,11.236,2.807C195.05,41.338,200,38,200,26.348S192.095,13.175,186.753,13.175ZM82.9,13.922H75.8s-.011-7.156-.011-7.158c0-.271-.183-.406-.593-.406H65.512c-.377,0-.579.126-.579.4v7.4s-4.852.893-5.18.965a.649.649,0,0,0-.567.576v4.648a.71.71,0,0,0,.783.6h4.964V32.133c0,8.306,7.639,9.122,12.794,9.122a27.774,27.774,0,0,0,5.638-.708.57.57,0,0,0,.445-.542l.008-5.113c0-.333-.37-.6-.786-.6s-1.473.128-2.563.128c-3.489,0-4.672-1.238-4.672-2.839s0-10.627,0-10.627h7.1a.711.711,0,0,0,.784-.6V14.524A.71.71,0,0,0,82.9,13.922Z" fill="#11110f"/>
    </g>
  </g>
</svg>
