<svg xmlns="http://www.w3.org/2000/svg" xmlns:xlink="http://www.w3.org/1999/xlink" width="200" height="72" viewBox="0 0 200 72">
  <defs>
    <clipPath id="clip-path">
      <rect id="Rectangle_79" data-name="Rectangle 79" width="200" height="72" fill="red" stroke="#707070" stroke-width="1"/>
    </clipPath>
  </defs>
  <g id="Mask_Group_8" data-name="Mask Group 8" clip-path="url(#clip-path)">
    <g id="_451eb490ec434c8" data-name="451eb490ec434c8" transform="translate(0 9.652)">
      <g id="Group_149" data-name="Group 149">
        <path id="Path_94" data-name="Path 94" d="M22.035,0H0V52.7Zm0,0" fill="#fa0c00"/>
        <path id="Path_95" data-name="Path 95" d="M37.538,0H59.543V52.7Zm0,0" fill="#fa0c00"/>
        <path id="Path_96" data-name="Path 96" d="M29.786,19.422,43.811,52.7h-9.2L30.418,42.1H20.154Zm0,0" fill="#fa0c00"/>
      </g>
      <g id="Group_150" data-name="Group 150">
        <path id="Path_97" data-name="Path 97" d="M95.491,33.511l2.6,7.45a.431.431,0,0,0,.445.273h5c.273,0,.316-.129.273-.4L93.482,12.166c-.043-.23-.086-.273-.316-.273h-6.2c-.172,0-.273.129-.273.316a6.613,6.613,0,0,1-.4,2.412l-9.2,26.169c-.043.316.057.445.316.445h4.464a.455.455,0,0,0,.5-.359l2.455-7.364Zm-9.244-4.866c1.349-4.077,3.129-9.3,3.847-12.288h.043c.89,3.129,2.986,9.331,3.933,12.288Zm0,0" fill="#fa0c00"/>
        <path id="Path_98" data-name="Path 98" d="M117.071,41.679a21.169,21.169,0,0,0,8.441-1.737.348.348,0,0,0,.273-.4c-.086-.8-.187-1.967-.187-2.857V9.7c0-.172,0-.258-.215-.258h-4.866c-.187,0-.273.086-.273.316V18.9a16,16,0,0,0-1.924-.129c-7.852,0-12.675,5.182-12.675,11.656,0,7.508,4.952,11.254,11.426,11.254Zm3.172-5a8.55,8.55,0,0,1-2.6.359c-3.56,0-6.474-2.01-6.474-6.89,0-4.321,3-6.876,6.976-6.876a5.8,5.8,0,0,1,2.1.316Zm0,0" fill="#fa0c00"/>
        <path id="Path_99" data-name="Path 99" d="M141.309,18.769c-6.7,0-10.852,5.139-10.852,11.484,0,5.67,3.3,11.426,10.752,11.426,6.3,0,10.723-4.637,10.723-11.57,0-6.115-3.747-11.34-10.623-11.34Zm-.273,4.507c3.79,0,5.4,3.259,5.4,6.976,0,4.594-2.369,6.876-5.125,6.876-3.4,0-5.412-2.857-5.412-6.976,0-4.235,2.139-6.876,5.139-6.876Zm0,0" fill="#fa0c00"/>
        <path id="Path_100" data-name="Path 100" d="M156.963,9.439a.281.281,0,0,0-.316.316V40.3a.471.471,0,0,0,.316.4,22.585,22.585,0,0,0,6.689.976c6.618,0,13.048-4.105,13.048-12.374,0-5.986-4.105-10.536-10.536-10.536a12.9,12.9,0,0,0-4.062.632l-.057-9.6c0-.316-.086-.359-.4-.359ZM171.2,29.851c0,4.952-3.388,7.278-7.048,7.278a7.085,7.085,0,0,1-2.053-.23V23.865a7.947,7.947,0,0,1,3.115-.5c3.531,0,5.986,2.239,5.986,6.488Zm0,0" fill="#fa0c00"/>
        <path id="Path_101" data-name="Path 101" d="M194.861,31.459a31.889,31.889,0,0,0,4.594-.187c.23-.043.316-.129.359-.316A13.558,13.558,0,0,0,200,28.2c0-4.249-2.555-9.431-9.158-9.431-6.747,0-10.493,5.5-10.493,11.7,0,5.5,2.9,11.211,11.024,11.211a14.827,14.827,0,0,0,6.7-1.292.477.477,0,0,0,.258-.488V36.181c0-.215-.129-.258-.258-.172a14.023,14.023,0,0,1-5.541,1.077c-4.55,0-6.618-2.512-6.747-5.627Zm-9.072-3.847c.359-2.182,1.737-4.55,4.823-4.55A4.129,4.129,0,0,1,194.9,27.21v.359a22.806,22.806,0,0,1-2.455.043Zm0,0" fill="#fa0c00"/>
      </g>
    </g>
  </g>
</svg>
