<svg xmlns="http://www.w3.org/2000/svg" xmlns:xlink="http://www.w3.org/1999/xlink" width="200" height="72" viewBox="0 0 200 72">
  <defs>
    <clipPath id="clip-path">
      <rect id="Rectangle_50" data-name="Rectangle 50" width="200" height="72" transform="translate(528)" fill="rgba(146,102,102,0)" stroke="#000" stroke-width="1"/>
    </clipPath>
  </defs>
  <g id="Mask_Group_5" data-name="Mask Group 5" transform="translate(-528)" clip-path="url(#clip-path)">
    <g id="a201e144353d432" transform="translate(527.243 16.259)">
      <path id="Path_79" data-name="Path 79" d="M66.891,9.213h.078a.634.634,0,0,1,.624.7V27.87a.624.624,0,0,1-1.247,0V9.832A.6.6,0,0,1,66.891,9.213Zm-17.073.929H61.59a.679.679,0,0,1,.624.7.613.613,0,0,1-.624.619H50.441v7.509H60.5a.619.619,0,1,1,0,1.239H50.519v7.742a.827.827,0,0,1-.78.7.7.7,0,0,1-.7-.7V10.838h.078A.7.7,0,0,1,49.818,10.141Zm34.147,5.574a.624.624,0,0,0-1.247,0v7.509a4.5,4.5,0,0,1-4.678,4.49c-2.729,0-4.288-1.781-4.288-4.568V15.715a.613.613,0,0,0-.624-.619.668.668,0,0,0-.624.619V23.38a5.137,5.137,0,0,0,5.379,5.5A5.338,5.338,0,0,0,82.8,26.089v1.935a.624.624,0,0,0,1.247,0h-.078Zm11.85.077a.6.6,0,0,1-.624.542H90.9v8.593c0,1.935,1.091,2.632,2.729,2.632a5.057,5.057,0,0,0,1.559-.232.531.531,0,0,1,.546.542.582.582,0,0,1-.39.542,5.7,5.7,0,0,1-1.949.31,3.442,3.442,0,0,1-3.742-3.639V16.335H88.175a.668.668,0,0,1-.624-.619.6.6,0,0,1,.624-.542h1.481V11.458a.6.6,0,0,1,.546-.619h.078a.668.668,0,0,1,.624.619v3.716h4.288A.668.668,0,0,1,95.815,15.793Zm9.979.542a.6.6,0,0,0,.624-.542.668.668,0,0,0-.624-.619h-4.288V11.458a.668.668,0,0,0-.624-.619H100.8a.6.6,0,0,0-.546.619v3.716H98.777a.6.6,0,0,0-.624.542.668.668,0,0,0,.624.619h1.481v8.748A3.443,3.443,0,0,0,104,28.721a5.7,5.7,0,0,0,1.949-.31.583.583,0,0,0,.39-.542.531.531,0,0,0-.546-.542,5.056,5.056,0,0,1-1.559.232c-1.637,0-2.729-.7-2.729-2.632V16.335Zm2.963,5.5c0-3.948,2.729-7.045,6.393-7.045,3.82,0,6.237,3.1,6.237,7.045a.669.669,0,0,1-.624.619h-10.6a5.326,5.326,0,0,0,5.3,5.264,6.093,6.093,0,0,0,4.366-1.858.6.6,0,0,1,.39-.155.605.605,0,0,1,.389,1.084,6.85,6.85,0,0,1-11.85-4.877Zm1.325-.619c.234-2.942,2.339-5.187,4.99-5.187,3.041,0,4.678,2.477,4.834,5.187Zm16.371-2.168a6.262,6.262,0,0,1,5.38-4.026.717.717,0,0,1,.7.774.679.679,0,0,1-.624.7h-.078c-2.885.31-5.38,2.4-5.38,6.735v4.955a.68.68,0,0,1-.7.619.669.669,0,0,1-.624-.619V15.793a.681.681,0,0,1,.7-.619.668.668,0,0,1,.624.619Zm26.663-4.722a1.992,1.992,0,0,0-1.949,1.548l-2.261,7.2-2.261-7.2a2.174,2.174,0,0,0-2.105-1.626h-.233A2.091,2.091,0,0,0,142.2,15.87l-2.261,7.122-2.183-7.2a2.079,2.079,0,0,0-1.949-1.548h-.078a1.824,1.824,0,0,0-1.793,1.858,3.867,3.867,0,0,0,.156.929h0l3.508,9.987a2.332,2.332,0,0,0,2.183,1.781h.156a2.315,2.315,0,0,0,2.183-1.7l2.261-7.122,2.261,7.122a2.246,2.246,0,0,0,2.183,1.7h.156a2.257,2.257,0,0,0,2.261-1.781l3.508-10.064a2.739,2.739,0,0,0,.156-.774V16.1A1.758,1.758,0,0,0,153.116,14.322Zm5.458.7a12.846,12.846,0,0,1,4.522-.7,7.185,7.185,0,0,1,4.911,1.626,6.346,6.346,0,0,1,1.56,4.49v6.348a1.924,1.924,0,0,1-1.949,1.935,1.884,1.884,0,0,1-1.95-1.7,5.564,5.564,0,0,1-4.287,1.781c-2.573,0-4.834-1.548-4.834-4.335,0-3.1,2.339-4.567,5.691-4.567a10.266,10.266,0,0,1,3.43.542v-.232q0-2.555-3.04-2.555a8.781,8.781,0,0,0-2.807.387,1.335,1.335,0,0,1-.546.077,1.553,1.553,0,0,1-1.715-1.548A1.616,1.616,0,0,1,158.574,15.019Zm7.172,8.516c0,1.548-1.325,2.477-3.2,2.4-1.248,0-2.183-.619-2.183-1.7v-.077c0-1.161,1.092-1.935,2.807-1.935a7.278,7.278,0,0,1,2.572.542Zm15.827-7.9a1.952,1.952,0,0,1,3.82.464v.077a2.055,2.055,0,0,1-.235.929L180.949,27.1a2.7,2.7,0,0,1-2.339,1.7h-.235a2.5,2.5,0,0,1-2.261-1.781l-4.365-9.987a2.041,2.041,0,0,1-.235-.929,1.958,1.958,0,0,1,1.95-1.858,2.009,2.009,0,0,1,1.949,1.471l3.04,8.129Zm5.379,6.5a7,7,0,0,0,7.406,6.658,7.587,7.587,0,0,0,4.912-1.7,1.388,1.388,0,0,0,.546-1.161v-.077a1.558,1.558,0,0,0-1.56-1.548,1.366,1.366,0,0,0-.935.31,4.441,4.441,0,0,1-2.886.929,3.246,3.246,0,0,1-3.43-2.787h8.031a1.825,1.825,0,0,0,1.715-1.935v-.31a6.543,6.543,0,0,0-6.783-6.348,7.052,7.052,0,0,0-7.017,7.354Zm7.017-4.722c-1.637,0-2.729,1.161-3.041,3.019h6C196.7,18.657,195.606,17.419,193.969,17.419Z" stroke="#000" stroke-width="1.161" fill-rule="evenodd"/>
      <path id="Path_80" data-name="Path 80" d="M28.924.31c17.541-2.632,6.315,12.309.858,16.49,3.742,2.864,7.562,6.89,9.2,11.457,3.04,8.361-4.444,9.6-10.057,7.509a31.387,31.387,0,0,1-15.2-12.232A10.877,10.877,0,0,1,10.6,23.07a38.246,38.246,0,0,1,2.339,16.412c0-9.677-4.6-19.277-11.226-27.25C-.624,9.445,1.793,7.355,3.9,10.064A62.574,62.574,0,0,1,7.8,16.18C10.057,8.283,21.284,1.393,28.924.31ZM26.429,14.554c3.43-2.09,13.877-13.315,4.132-12.309-5.613.619-12.4,5.806-15.2,9.135C19.257,10.916,23.233,12.619,26.429,14.554Zm-11.148-.7c2.651-.232,5.535,1.161,7.718,2.555a18.722,18.722,0,0,1-6.861,1.781C12.552,18.193,11.85,14.167,15.28,13.857Zm1.481,9.367c3.119,3.484,7.406,6.89,12.006,8.129,2.651.7,5.613.387,4.522-3.406-1.091-3.484-3.9-6.58-6.627-8.9a16.2,16.2,0,0,1-2.495,1.471A23.722,23.722,0,0,1,16.762,23.225Z" stroke="#000" stroke-width="1.161" fill-rule="evenodd"/>
    </g>
  </g>
</svg>
