<svg xmlns="http://www.w3.org/2000/svg" xmlns:xlink="http://www.w3.org/1999/xlink" width="200" height="72" viewBox="0 0 200 72">
  <defs>
    <clipPath id="clip-path">
      <rect id="Rectangle_52" data-name="Rectangle 52" width="200" height="72" transform="translate(792)" fill="#001189" stroke="#707070" stroke-width="1"/>
    </clipPath>
  </defs>
  <g id="Mask_Group_4" data-name="Mask Group 4" transform="translate(-792)" clip-path="url(#clip-path)">
    <g id="_354358793d23440" data-name="354358793d23440" transform="translate(791.9 16.546)">
      <path id="Path_78" data-name="Path 78" d="M12.77,38.212H5.234V19.426H.1V13.309H5.234V8.957C5.234,3.8,7.5.1,15.02.1c1.59,0,4.085.32,4.085.32V6.1H16.484c-2.671,0-3.714.812-3.714,3.058v4.151h6.235l-.555,6.117H12.77ZM30.062,12.82c-.11,0-.223,0-.335.007-6.988,0-10.185,5.256-10.185,12.718,0,9.4,4.147,13.162,10.24,13.162A7.363,7.363,0,0,0,36.95,34.5v3.714h7.168v-24.9H36.95v3.83A7.346,7.346,0,0,0,30.062,12.82ZM31.885,18.7c2.935,0,4.7,2.047,4.7,5.529l.007,3.557c0,2.347-1.455,5.093-4.7,5.093-4.994,0-4.861-5.392-4.861-7.188,0-6.041,2.661-6.99,4.861-6.99Zm15.128,7.06c0-3.026-.145-12.928,12.756-12.928,5.179,0,7.341,1.647,7.341,1.647l-1.738,5.391A11.344,11.344,0,0,0,60.4,18.684c-3.6,0-5.9,2.089-5.9,5.766l0,2.636a5.5,5.5,0,0,0,5.907,5.89,12.354,12.354,0,0,0,4.926-1.2l1.734,5.278s-1.977,1.657-7.261,1.657c-12.284,0-12.792-8.884-12.792-12.946Zm62.126-12.938c6.988,0,10.236,5.256,10.236,12.718,0,9.4-4.147,13.162-10.24,13.162-3.486,0-6.063-1.467-7.455-4.205v3.714l-7.078,0V.857L102.117.2V16.8c1.085-2.9,4.649-3.977,7.022-3.977ZM107.032,18.7c-2.935,0-4.915,2.047-4.915,5.529l-.007,3.557c0,2.347,1.371,5.093,4.922,5.093,4.994,0,4.861-5.392,4.861-7.188,0-6.041-2.661-6.99-4.861-6.99ZM80.149,12.848c-7.926,0-12.11,4.321-12.11,12v1.427c0,9.967,5.876,12.534,12.882,12.534,6.809,0,9.892-1.9,9.892-1.9l-1.406-5.072a21.926,21.926,0,0,1-7.584,1.543c-4.1,0-5.869-1.046-6.321-4.99H91.412V24.316c0-8.33-4.7-11.469-11.264-11.469Zm.191,5.079c2.744,0,4.521,1.682,4.424,5.584h-9.25c.16-4.107,2.078-5.584,4.826-5.584Zm54.019-5.113c-8.139,0-12.424,4.587-12.424,12.807,0,11.278,7.386,13.093,12.438,13.093,7.4,0,12.315-3.981,12.315-12.991,0-9.377-5.532-12.909-12.329-12.909Zm-.1,5.912c3.579,0,5,2.679,5,5.728v2.621c0,3.694-1.984,5.83-5.011,5.83-2.83,0-4.82-2-4.82-5.83V24.453C129.423,20.366,131.79,18.725,134.256,18.725Zm27.4-5.912c-8.139,0-12.424,4.587-12.424,12.807,0,11.278,7.386,13.093,12.438,13.093,7.395,0,12.315-3.981,12.315-12.991,0-9.377-5.532-12.909-12.329-12.909Zm-.1,5.912c3.579,0,5,2.679,5,5.728v2.621c0,3.694-1.984,5.83-5.011,5.83-2.83,0-4.82-2-4.82-5.83V24.453C156.722,20.366,159.089,18.725,161.556,18.725Zm15.271,19.487V.857L184.363.2V25.24l7.477-11.931H199.8L192,25.666l8.1,12.547h-7.982L184.363,26.03V38.212Z" fill="#1877f2"/>
    </g>
  </g>
</svg>
