<svg xmlns="http://www.w3.org/2000/svg" xmlns:xlink="http://www.w3.org/1999/xlink" width="200" height="72" viewBox="0 0 200 72">
  <defs>
    <clipPath id="clip-path">
      <rect id="Rectangle_56" data-name="Rectangle 56" width="200" height="72" transform="translate(1848)" fill="#b800c4" stroke="#707070" stroke-width="1"/>
    </clipPath>
  </defs>
  <g id="Mask_Group_2" data-name="Mask Group 2" transform="translate(-1848)" clip-path="url(#clip-path)">
    <g id="_190f3b4691cb4d4" data-name="190f3b4691cb4d4" transform="translate(1848 14.639)">
      <path id="Path_72" data-name="Path 72" d="M70.608,24.607l-1.192,3.378h-.1a23.982,23.982,0,0,0-1.159-3.312L61.765,8.611H55.506v25.6h4.14v-15.8c0-.994,0-2.12-.033-3.511-.033-.7-.1-1.225-.132-1.623h.1a15.471,15.471,0,0,0,.6,2.186l7.683,18.679h2.914L78.39,15.3a20.063,20.063,0,0,0,.5-2.02h.1c-.1,1.888-.166,3.577-.2,4.6V34.112h4.4V8.544H77.165Zm16.758-8.843h4.305V34.112H87.365Zm2.186-7.75a2.58,2.58,0,0,0-1.821.729,2.441,2.441,0,0,0,0,3.544,2.552,2.552,0,0,0,1.821.7,2.641,2.641,0,0,0,1.821-.7,2.33,2.33,0,0,0,.762-1.755,2.455,2.455,0,0,0-.762-1.788,2.416,2.416,0,0,0-1.821-.729M106.938,15.6a12.009,12.009,0,0,0-2.418-.265,10.39,10.39,0,0,0-5.233,1.292,8.65,8.65,0,0,0-3.444,3.544,11.263,11.263,0,0,0-1.192,5.3A9.829,9.829,0,0,0,95.811,30.2a7.938,7.938,0,0,0,3.246,3.279,9.554,9.554,0,0,0,4.736,1.159,10.409,10.409,0,0,0,5.2-1.225l.033-.033V29.409l-.166.132a7.4,7.4,0,0,1-2.086,1.093,6.383,6.383,0,0,1-2.053.4,5.08,5.08,0,0,1-4.04-1.59,6.108,6.108,0,0,1-1.49-4.338,6.26,6.26,0,0,1,1.523-4.471,5.315,5.315,0,0,1,4.04-1.656,7.047,7.047,0,0,1,4.107,1.391l.166.132V16.294l-.033-.033a9.985,9.985,0,0,0-2.053-.662m14.208-.132a4.543,4.543,0,0,0-2.914,1.027,6.179,6.179,0,0,0-1.656,2.484h-.033V15.764h-4.305V34.112h4.305V24.739a6.319,6.319,0,0,1,1.06-3.875,3.319,3.319,0,0,1,2.782-1.49,10.621,10.621,0,0,1,1.292.166,3.4,3.4,0,0,1,1.027.431l.166.132V15.8l-.1-.033a3.273,3.273,0,0,0-1.623-.3m11.724-.1a9.494,9.494,0,0,0-7.12,2.649,9.865,9.865,0,0,0-2.55,7.22,9.441,9.441,0,0,0,2.517,6.855,10.341,10.341,0,0,0,13.711-.166,9.831,9.831,0,0,0,2.55-7.12,9.583,9.583,0,0,0-2.418-6.922,8.716,8.716,0,0,0-6.69-2.517m3.444,14.108A4.341,4.341,0,0,1,132.7,31a4.523,4.523,0,0,1-3.709-1.59A6.542,6.542,0,0,1,127.67,25a6.953,6.953,0,0,1,1.325-4.5,4.554,4.554,0,0,1,3.676-1.59,4.4,4.4,0,0,1,3.577,1.523,6.793,6.793,0,0,1,1.325,4.471,7.662,7.662,0,0,1-1.258,4.57m15.267-6.094a10.314,10.314,0,0,1-2.616-1.358,1.88,1.88,0,0,1-.5-1.391,1.539,1.539,0,0,1,.7-1.325,3.191,3.191,0,0,1,1.888-.5,8.573,8.573,0,0,1,2.219.331,5.711,5.711,0,0,1,1.921.894l.166.132v-4.04l-.1-.033a11.95,11.95,0,0,0-1.954-.563,13.276,13.276,0,0,0-2.12-.2,7.673,7.673,0,0,0-5.067,1.59,4.9,4.9,0,0,0-1.954,4.04,5.258,5.258,0,0,0,.431,2.252,5.019,5.019,0,0,0,1.325,1.722,11.541,11.541,0,0,0,2.649,1.49c.994.431,1.755.762,2.219,1.027a4.5,4.5,0,0,1,.994.795,1.883,1.883,0,0,1,.265,1.027c0,1.225-.927,1.821-2.815,1.821a7.433,7.433,0,0,1-2.385-.431,9.213,9.213,0,0,1-2.418-1.225l-.166-.132v4.206l.1.033a12.846,12.846,0,0,0,2.318.729,14.787,14.787,0,0,0,2.484.3,8.065,8.065,0,0,0,5.332-1.59,5.071,5.071,0,0,0,2.02-4.173,4.644,4.644,0,0,0-1.06-3.146,13.429,13.429,0,0,0-3.875-2.285m16.294-8.015a9.494,9.494,0,0,0-7.12,2.649,10,10,0,0,0-2.55,7.22,9.441,9.441,0,0,0,2.517,6.855,10.341,10.341,0,0,0,13.711-.166,9.831,9.831,0,0,0,2.55-7.12,9.583,9.583,0,0,0-2.418-6.922,8.716,8.716,0,0,0-6.69-2.517m3.411,14.108A4.341,4.341,0,0,1,167.677,31a4.48,4.48,0,0,1-3.709-1.59,6.542,6.542,0,0,1-1.325-4.4,6.953,6.953,0,0,1,1.325-4.5,4.554,4.554,0,0,1,3.676-1.59,4.449,4.449,0,0,1,3.577,1.523,6.793,6.793,0,0,1,1.325,4.471,7.226,7.226,0,0,1-1.258,4.57M200,19.308V15.764h-4.338V10.333l-.132.033-4.107,1.225-.1.033v4.14h-6.491V13.446a3.632,3.632,0,0,1,.729-2.418,2.572,2.572,0,0,1,2.02-.795,4.832,4.832,0,0,1,1.921.431l.166.1V7.021l-.1-.033a8.281,8.281,0,0,0-5.862.464A5.744,5.744,0,0,0,181.355,9.8a6.776,6.776,0,0,0-.861,3.411v2.55H177.48v3.511h3.014V34.112h4.338v-14.8h6.491v9.439c0,3.875,1.821,5.829,5.464,5.829a11.349,11.349,0,0,0,1.821-.2,5.959,5.959,0,0,0,1.358-.431l.033-.033V30.369l-.166.132a2.8,2.8,0,0,1-.894.4,3.032,3.032,0,0,1-.861.132,2.294,2.294,0,0,1-1.888-.7,3.586,3.586,0,0,1-.6-2.351V19.308H200Z" fill="#737373"/>
      <path id="Path_73" data-name="Path 73" d="M0,0H20.3V20.3H0Z" fill="#f25022"/>
      <path id="Path_74" data-name="Path 74" d="M22.421,0h20.3V20.3h-20.3Z" fill="#7fba00"/>
      <path id="Path_75" data-name="Path 75" d="M0,22.421H20.3v20.3H0Z" fill="#00a4ef"/>
      <path id="Path_76" data-name="Path 76" d="M22.421,22.421h20.3v20.3h-20.3Z" fill="#ffb900"/>
    </g>
  </g>
</svg>
