<svg xmlns="http://www.w3.org/2000/svg" xmlns:xlink="http://www.w3.org/1999/xlink" width="258" height="258" viewBox="0 0 258 258">
  <defs>
    <linearGradient id="linear-gradient" x1="0.047" y1="0.356" x2="0.902" y2="0.609" gradientUnits="objectBoundingBox">
      <stop offset="0"/>
      <stop offset="1" stop-color="#fea905"/>
    </linearGradient>
  </defs>
  <path id="Subtraction_5" data-name="Subtraction 5" d="M-262,797.445a129.953,129.953,0,0,1-26-2.621,128.348,128.348,0,0,1-24.215-7.517,129.013,129.013,0,0,1-21.912-11.894,129.929,129.929,0,0,1-19.092-15.752,129.926,129.926,0,0,1-15.752-19.092,129.008,129.008,0,0,1-11.894-21.913,128.35,128.35,0,0,1-7.517-24.215,129.955,129.955,0,0,1-2.621-26,129.954,129.954,0,0,1,2.621-26,128.35,128.35,0,0,1,7.517-24.214,129.009,129.009,0,0,1,11.894-21.912,129.936,129.936,0,0,1,15.752-19.092,129.938,129.938,0,0,1,19.092-15.752,129.017,129.017,0,0,1,21.912-11.894A128.345,128.345,0,0,1-288,542.066a129.951,129.951,0,0,1,26-2.621,129.953,129.953,0,0,1,26,2.621,128.347,128.347,0,0,1,24.215,7.517,129.015,129.015,0,0,1,21.913,11.894,129.936,129.936,0,0,1,19.092,15.752,129.934,129.934,0,0,1,15.752,19.092,129.012,129.012,0,0,1,11.894,21.912,128.349,128.349,0,0,1,7.517,24.214,129.952,129.952,0,0,1,2.621,26,129.953,129.953,0,0,1-2.621,26,128.349,128.349,0,0,1-7.517,24.215,129.009,129.009,0,0,1-11.894,21.913,129.926,129.926,0,0,1-15.752,19.092,129.933,129.933,0,0,1-19.092,15.752,129.009,129.009,0,0,1-21.913,11.894A128.35,128.35,0,0,1-236,794.825,129.955,129.955,0,0,1-262,797.445Zm0-225.75c-53.7,0-97.382,43.4-97.382,96.75S-315.7,765.2-262,765.2s97.382-43.4,97.382-96.75S-208.3,571.7-262,571.7Z" transform="translate(391 -539.446)" fill="url(#linear-gradient)"/>
</svg>
