<svg id="undraw_questions_re_1fy7" xmlns="http://www.w3.org/2000/svg" xmlns:xlink="http://www.w3.org/1999/xlink" width="371.111" height="308.718" viewBox="0 0 371.111 308.718">
  <defs>
    <filter id="Path_186" x="169.799" y="230.127" width="45.929" height="55.191" filterUnits="userSpaceOnUse">
      <feOffset input="SourceAlpha"/>
      <feGaussianBlur stdDeviation="3" result="blur"/>
      <feFlood flood-opacity="0.161"/>
      <feComposite operator="in" in2="blur"/>
      <feComposite in="SourceGraphic"/>
    </filter>
    <filter id="Path_150" x="128.897" y="39.865" width="110.599" height="180.371" filterUnits="userSpaceOnUse">
      <feOffset input="SourceAlpha"/>
      <feGaussianBlur stdDeviation="3" result="blur-2"/>
      <feFlood flood-opacity="0.161"/>
      <feComposite operator="in" in2="blur-2"/>
      <feComposite in="SourceGraphic"/>
    </filter>
    <filter id="Path_151" x="0" y="253.56" width="371.111" height="55.158" filterUnits="userSpaceOnUse">
      <feOffset dx="5" dy="5" input="SourceAlpha"/>
      <feGaussianBlur stdDeviation="5" result="blur-3"/>
      <feFlood flood-opacity="0.161"/>
      <feComposite operator="in" in2="blur-3"/>
      <feComposite in="SourceGraphic"/>
    </filter>
    <filter id="Path_153" x="229.113" y="253.824" width="44.897" height="37.873" filterUnits="userSpaceOnUse">
      <feOffset dx="5" dy="5" input="SourceAlpha"/>
      <feGaussianBlur stdDeviation="5" result="blur-4"/>
      <feFlood flood-opacity="0.161"/>
      <feComposite operator="in" in2="blur-4"/>
      <feComposite in="SourceGraphic"/>
    </filter>
    <filter id="Path_155" x="264.968" y="251.457" width="44.408" height="37.718" filterUnits="userSpaceOnUse">
      <feOffset dx="5" dy="5" input="SourceAlpha"/>
      <feGaussianBlur stdDeviation="5" result="blur-5"/>
      <feFlood flood-opacity="0.161"/>
      <feComposite operator="in" in2="blur-5"/>
      <feComposite in="SourceGraphic"/>
    </filter>
    <filter id="Path_164" x="129.53" y="62.359" width="42.828" height="68.717" filterUnits="userSpaceOnUse">
      <feOffset input="SourceAlpha"/>
      <feGaussianBlur stdDeviation="3" result="blur-6"/>
      <feFlood flood-opacity="0.161"/>
      <feComposite operator="in" in2="blur-6"/>
      <feComposite in="SourceGraphic"/>
    </filter>
    <filter id="Path_165" x="156.136" y="65.173" width="58.986" height="61.401" filterUnits="userSpaceOnUse">
      <feOffset input="SourceAlpha"/>
      <feGaussianBlur stdDeviation="3" result="blur-7"/>
      <feFlood flood-opacity="0.161"/>
      <feComposite operator="in" in2="blur-7"/>
      <feComposite in="SourceGraphic"/>
    </filter>
    <filter id="Path_166" x="164.018" y="137.187" width="43.027" height="81.089" filterUnits="userSpaceOnUse">
      <feOffset input="SourceAlpha"/>
      <feGaussianBlur stdDeviation="3" result="blur-8"/>
      <feFlood flood-opacity="0.161"/>
      <feComposite operator="in" in2="blur-8"/>
      <feComposite in="SourceGraphic"/>
    </filter>
    <filter id="Path_168" x="57.213" y="265.394" width="47.332" height="38.625" filterUnits="userSpaceOnUse">
      <feOffset dx="5" dy="5" input="SourceAlpha"/>
      <feGaussianBlur stdDeviation="5" result="blur-9"/>
      <feFlood flood-opacity="0.161"/>
      <feComposite operator="in" in2="blur-9"/>
      <feComposite in="SourceGraphic"/>
    </filter>
    <filter id="Path_170" x="37.208" y="266.715" width="47.629" height="38.713" filterUnits="userSpaceOnUse">
      <feOffset dx="5" dy="5" input="SourceAlpha"/>
      <feGaussianBlur stdDeviation="5" result="blur-10"/>
      <feFlood flood-opacity="0.161"/>
      <feComposite operator="in" in2="blur-10"/>
      <feComposite in="SourceGraphic"/>
    </filter>
    <filter id="Path_179" x="169.917" y="233.785" width="42.816" height="51.689" filterUnits="userSpaceOnUse">
      <feOffset input="SourceAlpha"/>
      <feGaussianBlur stdDeviation="3" result="blur-11"/>
      <feFlood flood-opacity="0.161"/>
      <feComposite operator="in" in2="blur-11"/>
      <feComposite in="SourceGraphic"/>
    </filter>
  </defs>
  <path id="Path_149" data-name="Path 149" d="M130.355,170.986c1.314-.7,2.648-1.408,3.971-2.169a45.68,45.68,0,0,0,3.906-2.49,29.819,29.819,0,0,0,3.67-3.091,25.839,25.839,0,0,0,3.265-3.971,27.541,27.541,0,0,0,2.4-4.463,29.511,29.511,0,0,0,1.66-5.151,27.444,27.444,0,0,0,.665-5.56,23.939,23.939,0,0,0-2.389-10.858,21.594,21.594,0,0,0-2.655-4.167,20.537,20.537,0,0,0-3.238-3.188,19.294,19.294,0,0,0-3.552-2.22c-.685-.329-1.376-.618-2.074-.874s-1.4-.479-2.108-.677-1.418-.37-2.131-.524-1.429-.291-2.144-.416q-1.168-.2-2.339-.388t-2.347-.352q-1.175-.169-2.353-.326t-2.359-.309q-4.788-.615-9.61-1.073t-9.708-.759q-4.886-.3-9.808-.441-4.937-.14-9.911-.118-2.46.011-4.926.067t-4.948.151q-2.481.095-4.969.225t-4.992.288c-1.491.094-3,.181-4.523.2a37.546,37.546,0,0,1-4.568-.181,23.516,23.516,0,0,1-4.518-.912,18.956,18.956,0,0,1-4.371-1.99,19.77,19.77,0,0,1-3.215-2.5,21.976,21.976,0,0,1-2.863-3.352,23.1,23.1,0,0,1-2.286-4.143,24.079,24.079,0,0,1-1.483-4.87,26.711,26.711,0,0,1-.45-6.026,31.066,31.066,0,0,1,.792-5.876,34.885,34.885,0,0,1,4.225-10.3q.717-1.165,1.493-2.243t1.593-2.086q.817-1.007,1.667-1.954t1.717-1.848q.94-.978,1.9-1.921t1.923-1.852q.967-.909,1.947-1.785t1.968-1.72q1.946-1.661,3.933-3.2t4.005-2.938q2.018-1.4,4.071-2.678t4.131-2.416q1.025-.564,2.058-1.09t2.068-1.022q1.036-.5,2.077-.964t2.084-.915c.587-.252,1.175-.5,1.761-.76s1.17-.519,1.751-.793,1.158-.557,1.732-.858,1.141-.617,1.7-.956a21.5,21.5,0,0,0,3.161-2.312A18.9,18.9,0,0,0,89.6,38.811,18.144,18.144,0,0,0,91.751,34.9,20.236,20.236,0,0,0,93,30.049a26.682,26.682,0,0,0,.172-5.132,30.6,30.6,0,0,0-.743-5.075,31,31,0,0,0-1.514-4.754,26.611,26.611,0,0,0-2.143-4.166,20.422,20.422,0,0,0-3.089-3.789,18.563,18.563,0,0,0-7.429-4.367,19.512,19.512,0,0,0-3.965-.779,21.862,21.862,0,0,0-4.412.057,28.076,28.076,0,0,0-4.356.856,40.528,40.528,0,0,0-4.3,1.467C59.806,4.937,58.4,5.577,57,6.255c-1.494.724-2.981,1.477-4.468,2.237s-2.979,1.527-4.476,2.277-3,1.486-4.522,2.182S40.476,14.3,38.922,14.9s-3.1,1.136-4.661,1.64-3.142.965-4.727,1.381-3.183.791-4.787,1.12-3.221.615-4.843.855c-.795.118-1.6.24-2.4.351s-1.616.21-2.428.283-1.627.118-2.44.122a19.842,19.842,0,0,1-2.436-.131,12.43,12.43,0,0,1-2.027-.409,10.626,10.626,0,0,1-1.966-.792A10,10,0,0,1,4.365,18.07a10.775,10.775,0,0,1-1.652-1.778,12.743,12.743,0,0,1-1.178-1.927A13.423,13.423,0,0,1,.208,9.787,13.064,13.064,0,0,1,.19,7.271a.412.412,0,0,1,.136-.306.241.241,0,0,1,.24-.024.452.452,0,0,1,.219.208.679.679,0,0,1,.073.388A11.249,11.249,0,0,0,1,10.569,12.179,12.179,0,0,0,3.265,15.7a10.218,10.218,0,0,0,1.746,1.806,9.178,9.178,0,0,0,2.241,1.317,10.644,10.644,0,0,0,2.372.655,15.58,15.58,0,0,0,2.42.182c.805,0,1.6-.042,2.386-.1q2.536-.208,5.052-.565t5-.861q2.484-.5,4.942-1.154T34.3,15.534c1.585-.514,3.153-1.083,4.706-1.7s3.088-1.27,4.616-1.961,3.039-1.413,4.547-2.158,3-1.511,4.5-2.289c1.419-.738,2.843-1.47,4.277-2.162s2.871-1.342,4.323-1.918a39.343,39.343,0,0,1,4.385-1.47,27.3,27.3,0,0,1,4.463-.818,22.747,22.747,0,0,1,3.942-.036,20.2,20.2,0,0,1,3.93.7A18.854,18.854,0,0,1,81.8,3.273a19.353,19.353,0,0,1,3.579,2.5,20.335,20.335,0,0,1,2.808,3.054A25.4,25.4,0,0,1,90.524,12.6a29.708,29.708,0,0,1,1.787,4.365,32.475,32.475,0,0,1,1.146,4.817,30.016,30.016,0,0,1,.376,4.861,26.982,26.982,0,0,1-.425,4.688,22.586,22.586,0,0,1-1.228,4.327,18.137,18.137,0,0,1-2.033,3.775,18.866,18.866,0,0,1-2.753,3.1,22.007,22.007,0,0,1-3.111,2.33,33.668,33.668,0,0,1-3.315,1.8c-1.122.538-2.252,1.026-3.362,1.5q-2.116.912-4.212,1.908t-4.175,2.107q-2.079,1.111-4.132,2.348T61,57.16q-2.057,1.409-4.073,2.952t-3.995,3.219q-1.978,1.677-3.91,3.483t-3.819,3.744c-1.214,1.251-2.425,2.582-3.58,4.014A41.061,41.061,0,0,0,38.373,79.2a33.5,33.5,0,0,0-2.615,5.35,31.508,31.508,0,0,0-1.66,6.193,28.988,28.988,0,0,0-.335,3.13,27.626,27.626,0,0,0,.014,3.147,25.155,25.155,0,0,0,.383,3.094,22.158,22.158,0,0,0,.771,2.97,22.794,22.794,0,0,0,.989,2.455,22.289,22.289,0,0,0,1.212,2.229,21.728,21.728,0,0,0,1.4,1.993,20.923,20.923,0,0,0,1.54,1.747,18.622,18.622,0,0,0,4.016,3.108,19.1,19.1,0,0,0,4.32,1.8,24.813,24.813,0,0,0,4.479.808,39.081,39.081,0,0,0,4.5.131c1.668-.039,3.333-.105,4.995-.185s3.316-.173,4.97-.265,3.3-.182,4.948-.257,3.287-.133,4.927-.161q5-.085,9.973-.006,4.955.079,9.877.321,4.907.241,9.784.644t9.692.962q1.208.14,2.414.291t2.408.31q1.2.16,2.4.33t2.395.349c.717.108,1.434.215,2.15.329s1.431.234,2.144.368,1.424.281,2.133.448,1.414.355,2.116.57a23.7,23.7,0,0,1,3.7,1.47,20.85,20.85,0,0,1,3.5,2.21,20.393,20.393,0,0,1,3.168,3.087,22.87,22.87,0,0,1,2.69,4.1,21.452,21.452,0,0,1,.97,2.112c.291.734.549,1.5.773,2.28s.413,1.592.567,2.416.271,1.667.352,2.521a25.711,25.711,0,0,1,.086,2.68c-.017.892-.079,1.781-.18,2.66s-.243,1.749-.42,2.6-.389,1.69-.633,2.5a29.229,29.229,0,0,1-1.986,4.968,27.494,27.494,0,0,1-2.616,4.15,28.389,28.389,0,0,1-3.081,3.417,31.488,31.488,0,0,1-3.38,2.767c-.62.441-1.247.859-1.88,1.259s-1.271.783-1.913,1.153-1.288.73-1.935,1.083-1.3.7-1.947,1.047a.2.2,0,0,1-.242-.027.513.513,0,0,1-.135-.272.768.768,0,0,1,.007-.348.392.392,0,0,1,.183-.254Z" transform="translate(111.51 97.493)" fill="#f2f2f2"/>
  <path id="Path_180" data-name="Path 180" d="M8,.111a7.115,7.115,0,0,1,3.1.766,8.3,8.3,0,0,1,2.546,2.006,9.747,9.747,0,0,1,1.737,2.944,10.623,10.623,0,0,1,.673,3.587,10.378,10.378,0,0,1-.57,3.578,9.181,9.181,0,0,1-1.654,2.917,7.766,7.766,0,0,1-2.493,1.962,6.9,6.9,0,0,1-3.085.709,7.1,7.1,0,0,1-3.114-.745,8.285,8.285,0,0,1-2.568-2A9.737,9.737,0,0,1,.822,12.875,10.622,10.622,0,0,1,.145,9.261a10.37,10.37,0,0,1,.582-3.6A9.161,9.161,0,0,1,2.4,2.741,7.744,7.744,0,0,1,4.915.794,6.89,6.89,0,0,1,8,.111Z" transform="translate(105.275 95.899)" fill="#f2f2f2"/>
  <path id="Path_181" data-name="Path 181" d="M6.941.025A5.891,5.891,0,0,1,9.634.7a7.2,7.2,0,0,1,2.216,1.81,8.947,8.947,0,0,1,1.517,2.676,10.136,10.136,0,0,1,.6,3.274,9.98,9.98,0,0,1-.482,3.276,8.588,8.588,0,0,1-1.426,2.681A6.868,6.868,0,0,1,9.9,16.228a5.757,5.757,0,0,1-2.674.675,5.879,5.879,0,0,1-2.7-.653A7.182,7.182,0,0,1,2.29,14.444,8.936,8.936,0,0,1,.758,11.756a10.135,10.135,0,0,1-.6-3.3A9.973,9.973,0,0,1,.651,5.166,8.567,8.567,0,0,1,2.093,2.482,6.844,6.844,0,0,1,4.264.678,5.749,5.749,0,0,1,6.941.025Z" transform="translate(143.722 118.683)" fill="#f2f2f2"/>
  <path id="Path_182" data-name="Path 182" d="M6.391.084a5.24,5.24,0,0,1,2.482.6,6.539,6.539,0,0,1,2.045,1.685,8.418,8.418,0,0,1,1.4,2.519,9.994,9.994,0,0,1,.119,6.222,8.39,8.39,0,0,1-1.307,2.569,6.512,6.512,0,0,1-1.982,1.757,5.175,5.175,0,0,1-4.951.1,6.52,6.52,0,0,1-2.06-1.681A8.407,8.407,0,0,1,.725,11.323,9.992,9.992,0,0,1,.611,5.067,8.368,8.368,0,0,1,1.933,2.494,6.487,6.487,0,0,1,3.927.747,5.218,5.218,0,0,1,6.391.084Z" transform="translate(167.607 154.821)" fill="#f2f2f2"/>
  <path id="Path_183" data-name="Path 183" d="M7.282.145a6.168,6.168,0,0,1,2.824.625,7.267,7.267,0,0,1,2.323,1.81A8.892,8.892,0,0,1,14.018,5.3a10.148,10.148,0,0,1,.622,3.359,10.229,10.229,0,0,1-.509,3.388,9.076,9.076,0,0,1-1.5,2.8A7.438,7.438,0,0,1,10.37,16.77a6.236,6.236,0,0,1-2.805.763,6.16,6.16,0,0,1-2.835-.605,7.249,7.249,0,0,1-2.341-1.805,8.881,8.881,0,0,1-1.6-2.732A10.347,10.347,0,0,1,.677,5.6,9.056,9.056,0,0,1,2.194,2.8,7.413,7.413,0,0,1,4.473.885,6.224,6.224,0,0,1,7.282.145Z" transform="translate(137.274 169.765)" fill="#f2f2f2"/>
  <path id="Path_184" data-name="Path 184" d="M6.409.207A5,5,0,0,1,8.9.786,6.467,6.467,0,0,1,10.951,2.52a8.791,8.791,0,0,1,1.411,2.623A10.7,10.7,0,0,1,12.923,8.4a10.87,10.87,0,0,1-.434,3.29,9.179,9.179,0,0,1-1.308,2.727A6.815,6.815,0,0,1,9.2,16.3a5.13,5.13,0,0,1-2.467.763,4.988,4.988,0,0,1-2.5-.563,6.445,6.445,0,0,1-2.067-1.73A8.777,8.777,0,0,1,.741,12.134,10.7,10.7,0,0,1,.176,8.862,10.863,10.863,0,0,1,.619,5.555,9.152,9.152,0,0,1,1.942,2.825a6.783,6.783,0,0,1,2-1.875A5.116,5.116,0,0,1,6.409.207Z" transform="translate(171.499 195.69)" fill="#f2f2f2"/>
  <path id="Path_185" data-name="Path 185" d="M4.872.18a3.437,3.437,0,0,1,1.9.5A5.209,5.209,0,0,1,8.342,2.193a8.118,8.118,0,0,1,1.09,2.283,10.548,10.548,0,0,1,.448,2.83,10.7,10.7,0,0,1-.31,2.862,8.441,8.441,0,0,1-.979,2.371,5.484,5.484,0,0,1-1.5,1.637,3.536,3.536,0,0,1-1.871.66,3.428,3.428,0,0,1-1.9-.493,5.188,5.188,0,0,1-1.582-1.506,8.105,8.105,0,0,1-1.1-2.29A10.548,10.548,0,0,1,.189,7.7,10.688,10.688,0,0,1,.5,4.829a8.413,8.413,0,0,1,.987-2.373A5.453,5.453,0,0,1,3,.827,3.523,3.523,0,0,1,4.872.18Z" transform="translate(232.125 203.674)" fill="#f2f2f2"/>
  <g transform="matrix(1, 0, 0, 1, 0, 0)" filter="url(#Path_186)">
    <path id="Path_186-2" data-name="Path 186" d="M22.678,9.72a10.569,10.569,0,0,1,5.289,1.106,13.271,13.271,0,0,1,4.355,3.546,17.924,17.924,0,0,1,2.993,5.44,22.069,22.069,0,0,1,1.2,6.8,22.932,22.932,0,0,1-.908,6.939,19.865,19.865,0,0,1-2.761,5.815,15.03,15.03,0,0,1-4.207,4.1,11.252,11.252,0,0,1-5.245,1.767A10.538,10.538,0,0,1,18.064,44.2a13.18,13.18,0,0,1-4.421-3.528,17.862,17.862,0,0,1-3.049-5.487A22.067,22.067,0,0,1,9.382,28.3a22.909,22.909,0,0,1,.947-7.016,19.752,19.752,0,0,1,2.827-5.833A14.883,14.883,0,0,1,17.419,11.4,11.176,11.176,0,0,1,22.678,9.72Z" transform="translate(169.8 230.13)" fill="#0021ff"/>
  </g>
  <path id="Path_187" data-name="Path 187" d="M9.467.564a8.783,8.783,0,0,1,3.67,1.067,10.567,10.567,0,0,1,3.022,2.491A12.223,12.223,0,0,1,18.232,7.67a12.759,12.759,0,0,1,.822,4.245,11.831,11.831,0,0,1-.643,4.168,10.076,10.076,0,0,1-1.929,3.337,8.522,8.522,0,0,1-2.929,2.174,7.95,7.95,0,0,1-3.64.672,8.753,8.753,0,0,1-3.688-1.037,10.535,10.535,0,0,1-3.053-2.486,12.21,12.21,0,0,1-2.1-3.57,12.757,12.757,0,0,1-.83-4.283A11.816,11.816,0,0,1,.9,6.692,10.045,10.045,0,0,1,2.864,3.35,8.5,8.5,0,0,1,5.82,1.2,7.953,7.953,0,0,1,9.467.564Z" transform="translate(183.56 0)" fill="#f2f2f2"/>
  <path id="Path_188" data-name="Path 188" d="M9.2.347a8.267,8.267,0,0,1,3.567.976,10.019,10.019,0,0,1,2.943,2.4A11.881,11.881,0,0,1,17.731,7.2a12.757,12.757,0,0,1,.812,4.193,12.072,12.072,0,0,1-.612,4.15A10.3,10.3,0,0,1,16.069,18.9a8.529,8.529,0,0,1-2.837,2.222,7.665,7.665,0,0,1-3.533.748,8.241,8.241,0,0,1-3.585-.946,9.987,9.987,0,0,1-2.973-2.4,11.866,11.866,0,0,1-2.051-3.494A12.755,12.755,0,0,1,.27,10.8,12.058,12.058,0,0,1,.9,6.618,10.272,10.272,0,0,1,2.792,3.259a8.5,8.5,0,0,1,2.863-2.2A7.662,7.662,0,0,1,9.2.347Z" transform="translate(218.804 47.711)" fill="#f2f2f2"/>
  <path id="Path_189" data-name="Path 189" d="M9.08.275A7.642,7.642,0,0,1,12.6,1.02a9.033,9.033,0,0,1,2.912,2.234,11.119,11.119,0,0,1,2.008,3.382,12.758,12.758,0,0,1,.813,4.195,12.9,12.9,0,0,1-.593,4.249,11.433,11.433,0,0,1-1.831,3.527,9.324,9.324,0,0,1-2.8,2.447,7.757,7.757,0,0,1-3.486,1,7.628,7.628,0,0,1-3.542-.713,9,9,0,0,1-2.942-2.226,11.1,11.1,0,0,1-2.034-3.4,12.756,12.756,0,0,1-.82-4.232A12.887,12.887,0,0,1,.9,7.2,11.4,11.4,0,0,1,2.765,3.667,9.281,9.281,0,0,1,5.586,1.239,7.737,7.737,0,0,1,9.08.275Z" transform="translate(245.798 189.242)" fill="#f2f2f2"/>
  <g transform="matrix(1, 0, 0, 1, 0, 0)" filter="url(#Path_150)">
    <path id="Path_150-2" data-name="Path 150" d="M54.045,10.613a36.367,36.367,0,0,0-17,3.712A43.067,43.067,0,0,0,23.013,25.452,54.047,54.047,0,0,0,13.48,42.431a63.275,63.275,0,0,0-3.462,21.118c0,.069,0,.244.006.506s.009.613.015,1.034.014.914.022,1.462.018,1.149.028,1.789A16.762,16.762,0,0,0,11.1,73.853a15,15,0,0,0,2.6,4.509A12.249,12.249,0,0,0,17.481,81.4a10.1,10.1,0,0,0,4.573,1.12h0a9.787,9.787,0,0,0,4.52-1.1,11.448,11.448,0,0,0,3.639-3,14.128,14.128,0,0,0,2.4-4.452,16.381,16.381,0,0,0,.809-5.45L33.4,67.333l-.017-.929-.011-.62,0-.255a31.146,31.146,0,0,1,1.161-9.076,27.219,27.219,0,0,1,3.532-7.711,22.275,22.275,0,0,1,5.463-5.715,18.513,18.513,0,0,1,6.953-3.111,17.531,17.531,0,0,1,7.45.025A19.661,19.661,0,0,1,64.8,42.953a23.947,23.947,0,0,1,5.727,5.582,28.746,28.746,0,0,1,4.025,7.756,31.867,31.867,0,0,1,.867,17.6,27.97,27.97,0,0,1-3.136,7.821,22.934,22.934,0,0,1-5.3,6.17l0,.006s-.981.792-2.524,2.255a76.865,76.865,0,0,0-5.92,6.294,69,69,0,0,0-6.822,9.634,49.518,49.518,0,0,0-5.171,12.239h0q-.3,1.36-.523,2.743t-.36,2.783q-.139,1.4-.195,2.811t-.029,2.828c.007.388.033,1.528.074,3.193s.1,3.855.16,6.342.14,5.273.221,8.128.167,5.782.255,8.548a17.244,17.244,0,0,0,1.091,5.559,14.73,14.73,0,0,0,2.634,4.46,11.662,11.662,0,0,0,3.788,2.917,9.7,9.7,0,0,0,4.552.94h0a9.634,9.634,0,0,0,2.3-.374,10.3,10.3,0,0,0,2.174-.913,11.452,11.452,0,0,0,1.987-1.417,12.955,12.955,0,0,0,1.74-1.885,14.616,14.616,0,0,0,1.407-2.268,16.143,16.143,0,0,0,1.011-2.536,17.29,17.29,0,0,0,.594-2.727,17.845,17.845,0,0,0,.154-2.843c-.064-2.506-.129-5.114-.19-7.628s-.119-4.935-.17-7.069-.093-3.98-.125-5.346-.051-2.251-.056-2.462a24.834,24.834,0,0,1,1.246-8.009,39.213,39.213,0,0,1,3.45-7.66,59.936,59.936,0,0,1,4.723-6.939c1.682-2.151,3.425-4.125,5.077-5.864a52.741,52.741,0,0,0,5.247-6.5,56.477,56.477,0,0,0,4.276-7.387A59.737,59.737,0,0,0,96.285,81.6a62.458,62.458,0,0,0,2.057-8.762q.162-.929.282-1.869t.2-1.887q.079-.947.115-1.9t.032-1.91a66.819,66.819,0,0,0-1.078-10.5,65.244,65.244,0,0,0-2.674-10.024,61.489,61.489,0,0,0-4.176-9.283,56.184,56.184,0,0,0-5.592-8.275,50.228,50.228,0,0,0-6.774-6.861,44.607,44.607,0,0,0-7.637-5.139A40.072,40.072,0,0,0,62.755,11.9,37.151,37.151,0,0,0,54.045,10.613Z" transform="translate(128.9 39.87)" fill="#0021ff"/>
  </g>
  <g transform="matrix(1, 0, 0, 1, 0, 0)" filter="url(#Path_151)">
    <path id="Path_151-2" data-name="Path 151" d="M350.7,11.071,10.572,35.118a.507.507,0,0,1-.22-.033.516.516,0,0,1-.18-.119.568.568,0,0,1-.122-.186A.634.634,0,0,1,10,34.545a.68.68,0,0,1,.163-.445.621.621,0,0,1,.179-.144.549.549,0,0,1,.219-.064l340.1-23.863a.327.327,0,0,1,.161.03.4.4,0,0,1,.134.1.523.523,0,0,1,.093.159.634.634,0,0,1,.039.2.654.654,0,0,1-.025.205.573.573,0,0,1-.082.172.445.445,0,0,1-.126.121.345.345,0,0,1-.158.052Z" transform="translate(0 253.56)" fill="#3f3d56"/>
  </g>
  <path id="Path_190" data-name="Path 190" d="M11.106.152a9.629,9.629,0,0,1,4.307,1.1,11.773,11.773,0,0,1,3.558,2.882,14.377,14.377,0,0,1,2.456,4.231,15.943,15.943,0,0,1,1,5.158,15.435,15.435,0,0,1-.715,5.15,13.21,13.21,0,0,1-2.228,4.207,10.678,10.678,0,0,1-3.409,2.842,9.187,9.187,0,0,1-4.258,1.043,9.6,9.6,0,0,1-4.332-1.053,11.722,11.722,0,0,1-3.6-2.872,14.35,14.35,0,0,1-2.5-4.262,15.941,15.941,0,0,1-1.01-5.214,15.415,15.415,0,0,1,.741-5.2A13.156,13.156,0,0,1,3.389,3.95,10.621,10.621,0,0,1,6.837,1.139,9.172,9.172,0,0,1,11.106.152Z" transform="translate(258.14 98.334)" fill="#2f2e41"/>
  <path id="Path_152" data-name="Path 152" d="M7.412,21.69l-4.657.316L0,.393,6.871,0Z" transform="translate(245.455 243.81)" fill="#a0616a"/>
  <g transform="matrix(1, 0, 0, 1, 0, 0)" filter="url(#Path_153)">
    <path id="Path_153-2" data-name="Path 153" d="M15.718,10.6l8.991-.6.171,6.839-14.7,1.034h0a8.275,8.275,0,0,1,.385-2.713,7.523,7.523,0,0,1,1.172-2.272,6.171,6.171,0,0,1,1.778-1.6A5.014,5.014,0,0,1,15.718,10.6Z" transform="translate(229.11 253.82)" fill="#2f2e41"/>
  </g>
  <path id="Path_154" data-name="Path 154" d="M7.23,21.313l-4.5.3L0,.379,6.636,0Z" transform="translate(281.026 241.789)" fill="#a0616a"/>
  <g transform="matrix(1, 0, 0, 1, 0, 0)" filter="url(#Path_155)">
    <path id="Path_155-2" data-name="Path 155" d="M15.521,10.582,24.205,10l.188,6.72-14.2,1h0a8.244,8.244,0,0,1,.363-2.665,7.4,7.4,0,0,1,1.124-2.231A5.956,5.956,0,0,1,13.4,11.256,4.766,4.766,0,0,1,15.521,10.582Z" transform="translate(264.97 251.46)" fill="#2f2e41"/>
  </g>
  <path id="Path_191" data-name="Path 191" d="M9.1.1A7.891,7.891,0,0,1,12.636,1a9.632,9.632,0,0,1,2.921,2.358,11.761,11.761,0,0,1,2.017,3.468,13.053,13.053,0,0,1,.82,4.231,12.652,12.652,0,0,1-.589,4.225,10.841,10.841,0,0,1-1.831,3.452,8.77,8.77,0,0,1-2.8,2.331,7.545,7.545,0,0,1-3.493.855,7.868,7.868,0,0,1-3.551-.862A9.6,9.6,0,0,1,3.178,18.7a11.743,11.743,0,0,1-2.043-3.489,13.051,13.051,0,0,1-.827-4.269A12.639,12.639,0,0,1,.915,6.689,10.8,10.8,0,0,1,2.776,3.23,8.732,8.732,0,0,1,5.6.92,7.534,7.534,0,0,1,9.1.1Z" transform="translate(258.599 103.258)" fill="#a0616a"/>
  <path id="Path_156" data-name="Path 156" d="M33.8,31.219l3.722-11.3a16.168,16.168,0,0,0,.827-4.182A16.95,16.95,0,0,0,38.1,11.51a16.268,16.268,0,0,0-1.285-3.97,14.4,14.4,0,0,0-2.259-3.423q-.137-.158-.278-.312t-.286-.3q-.145-.148-.293-.29t-.3-.279A11.827,11.827,0,0,0,31.79,1.689,10.81,10.81,0,0,0,30.054.778,10.038,10.038,0,0,0,28.223.219,9.57,9.57,0,0,0,26.334.027a9.854,9.854,0,0,0-2.526.346,10.145,10.145,0,0,0-1.22.417,10.532,10.532,0,0,0-1.176.576l-.1.055-.1.056-.1.057-.1.057-.188.113-.186.118-.184.121-.182.123a11.8,11.8,0,0,0-2.17,1.992,13.492,13.492,0,0,0-1.693,2.528,15.176,15.176,0,0,0-1.155,2.95,16.483,16.483,0,0,0-.555,3.257L13.356,31.1c-.105.361-1.122,3.9-2.487,9.63s-3.087,13.7-4.587,22.888A265.3,265.3,0,0,0,3.006,93.93a150.975,150.975,0,0,0,1.526,31.595,2.281,2.281,0,0,0,.192.611,1.964,1.964,0,0,0,.334.491,1.647,1.647,0,0,0,.445.34,1.442,1.442,0,0,0,.526.156l5.885.594a1.427,1.427,0,0,0,.643-.083,1.666,1.666,0,0,0,.559-.351,2.05,2.05,0,0,0,.422-.569,2.39,2.39,0,0,0,.231-.736l8.287-56.64a1.8,1.8,0,0,1,.148-.5,1.562,1.562,0,0,1,.267-.4,1.3,1.3,0,0,1,.36-.276,1.116,1.116,0,0,1,.426-.121,1.088,1.088,0,0,1,.435.056,1.223,1.223,0,0,1,.386.219,1.467,1.467,0,0,1,.308.358,1.73,1.73,0,0,1,.2.472L39.7,127.132a2.177,2.177,0,0,0,.244.588,1.815,1.815,0,0,0,.376.446,1.5,1.5,0,0,0,.473.275,1.347,1.347,0,0,0,.536.074l.08-.008.08-.012.08-.016.079-.021,6.867-2.085a1.531,1.531,0,0,0,.561-.31,1.926,1.926,0,0,0,.421-.521,2.312,2.312,0,0,0,.247-.668,2.477,2.477,0,0,0,.036-.752c-.35-3.46-1.071-10.384-2.067-18.973S45.446,86.321,43.992,76.2,40.9,56.1,39.176,48.015,35.628,33.735,33.8,31.219Z" transform="translate(240.807 129.219)" fill="#2f2e41"/>
  <path id="Path_157" data-name="Path 157" d="M.133,4.073A5.394,5.394,0,0,0,.349,6.036a5.122,5.122,0,0,0,.367.9,4.716,4.716,0,0,0,.526.8,4.236,4.236,0,0,0,.656.645,3.783,3.783,0,0,0,.745.459,3.433,3.433,0,0,0,.806.26,3.237,3.237,0,0,0,.839.049l5.568,14.89,3.753-6.973L7.762,4.009a5.286,5.286,0,0,0-.468-1.593,4.691,4.691,0,0,0-.882-1.269A3.922,3.922,0,0,0,5.223.31,3.349,3.349,0,0,0,3.83.013,3.255,3.255,0,0,0,2.454.329a3.678,3.678,0,0,0-1.142.855A4.409,4.409,0,0,0,.5,2.468a5.115,5.115,0,0,0-.371,1.6Z" transform="translate(232.316 119.215)" fill="#a0616a"/>
  <path id="Path_158" data-name="Path 158" d="M4.724,18.336a3.175,3.175,0,0,0,.788-.243,3.468,3.468,0,0,0,.715-.44,3.9,3.9,0,0,0,.617-.617,4.419,4.419,0,0,0,.5-.775,4.917,4.917,0,0,0,.343-.89,5.292,5.292,0,0,0,.173-.95,5.46,5.46,0,0,0,0-.976,5.385,5.385,0,0,0-.176-.967L18.016,2.894,11.577.1,2.7,9.634a3.659,3.659,0,0,0-1.152.887,4.5,4.5,0,0,0-.786,1.291A5.238,5.238,0,0,0,.4,13.361a5.465,5.465,0,0,0,.126,1.661,5.05,5.05,0,0,0,.61,1.5,4.248,4.248,0,0,0,.979,1.113,3.487,3.487,0,0,0,1.233.633A3.1,3.1,0,0,0,4.724,18.336Z" transform="translate(264.386 157.088)" fill="#a0616a"/>
  <path id="Path_159" data-name="Path 159" d="M13.974,22.185q-.156,0-.312-.005t-.312-.024q-.156-.016-.311-.042t-.309-.06a5.509,5.509,0,0,1-1.451-.536,6.2,6.2,0,0,1-1.289-.927,7.079,7.079,0,0,1-1.072-1.268,7.943,7.943,0,0,1-.8-1.558L.573,7.22a2.16,2.16,0,0,1-.209-.363,2.326,2.326,0,0,1-.139-.4A2.421,2.421,0,0,1,.17,5.6a2.317,2.317,0,0,1,.088-.42,2.149,2.149,0,0,1,.159-.382,1.943,1.943,0,0,1,.224-.331A1.737,1.737,0,0,1,.923,4.2L6.015.353a1.558,1.558,0,0,1,.3-.177,1.457,1.457,0,0,1,.32-.1A1.422,1.422,0,0,1,6.965.048,1.456,1.456,0,0,1,7.3.1,1.558,1.558,0,0,1,7.62.233a1.715,1.715,0,0,1,.292.2A1.9,1.9,0,0,1,8.167.7a2.1,2.1,0,0,1,.21.32l5.35,10.03,9.478-8.661a3.112,3.112,0,0,1,1.228-.47A3.027,3.027,0,0,1,25.694,2a3.41,3.41,0,0,1,1.172.593,4.127,4.127,0,0,1,.965,1.074,4.874,4.874,0,0,1,.6,1.4,5.241,5.241,0,0,1,.154,1.509A5.012,5.012,0,0,1,28.3,8.044a4.315,4.315,0,0,1-.715,1.28L18.212,20.011a6.336,6.336,0,0,1-.9.915,5.729,5.729,0,0,1-1.027.678,5.3,5.3,0,0,1-1.122.425A5.1,5.1,0,0,1,13.974,22.185Z" transform="translate(236.997 130.901)" fill="#2f2e41"/>
  <path id="Path_160" data-name="Path 160" d="M7.11,34.385H7.071a1.381,1.381,0,0,1-.346-.047,1.481,1.481,0,0,1-.328-.132,1.65,1.65,0,0,1-.3-.211,1.863,1.863,0,0,1-.261-.285L1.191,27.452A2.1,2.1,0,0,1,.983,27.1a2.292,2.292,0,0,1-.143-.388,2.43,2.43,0,0,1-.074-.841,2.356,2.356,0,0,1,.074-.416,2.192,2.192,0,0,1,.143-.382,1.977,1.977,0,0,1,.206-.336,1.752,1.752,0,0,1,.263-.277l8.172-6.886L1.761,6.614A5,5,0,0,1,1.269,5.16a5.238,5.238,0,0,1-.044-1.512,4.863,4.863,0,0,1,.387-1.423,4.084,4.084,0,0,1,.8-1.189A3.332,3.332,0,0,1,3.515.28,2.962,2.962,0,0,1,4.74.052a3.08,3.08,0,0,1,1.226.3,3.645,3.645,0,0,1,1.106.819l9.431,10.8a7.3,7.3,0,0,1,.984,1.337,8.2,8.2,0,0,1,.689,1.554,8.788,8.788,0,0,1,.371,1.7,8.925,8.925,0,0,1,.03,1.774,8.568,8.568,0,0,1-.321,1.721,7.825,7.825,0,0,1-.642,1.547,6.887,6.887,0,0,1-.929,1.31A5.968,5.968,0,0,1,15.5,23.919L8.293,33.73A1.778,1.778,0,0,1,8.045,34a1.582,1.582,0,0,1-.286.2,1.439,1.439,0,0,1-.315.129A1.366,1.366,0,0,1,7.11,34.385Z" transform="translate(270.312 134.086)" fill="#2f2e41"/>
  <path id="Path_161" data-name="Path 161" d="M5.489,17.141H5.435l-.054,0-.054,0-.054-.007a1.454,1.454,0,0,1-.461-.145,1.674,1.674,0,0,1-.4-.29,1.961,1.961,0,0,1-.324-.412,2.23,2.23,0,0,1-.221-.513L.146,3.256a1.651,1.651,0,0,1-.067-.494A1.6,1.6,0,0,1,.158,2.29a1.39,1.39,0,0,1,.21-.405,1.138,1.138,0,0,1,.327-.295L.8,1.528l.074-.043L.95,1.443,1.024,1.4,1.1,1.36A10.656,10.656,0,0,1,2.292.776,10.265,10.265,0,0,1,3.531.354,9.972,9.972,0,0,1,6.095.006,9.672,9.672,0,0,1,7.772.155,10.053,10.053,0,0,1,9.41.592a10.678,10.678,0,0,1,1.574.715,11.511,11.511,0,0,1,1.485.983,1.341,1.341,0,0,1,.33.385,1.6,1.6,0,0,1,.181.486A1.685,1.685,0,0,1,13,3.688a1.539,1.539,0,0,1-.15.509L6.86,16.2a1.91,1.91,0,0,1-.255.392,1.658,1.658,0,0,1-.325.3,1.465,1.465,0,0,1-.378.187A1.369,1.369,0,0,1,5.489,17.141Z" transform="translate(261.017 128.128)" fill="#e6e6e6"/>
  <path id="Path_192" data-name="Path 192" d="M3.59.052a3.123,3.123,0,0,1,1.4.36,3.846,3.846,0,0,1,1.159.942,4.712,4.712,0,0,1,.8,1.383,5.216,5.216,0,0,1,.327,1.685A5.02,5.02,0,0,1,7.043,6.1a4.264,4.264,0,0,1-.726,1.366,3.429,3.429,0,0,1-1.109.915,2.958,2.958,0,0,1-1.381.326,3.119,3.119,0,0,1-1.4-.355,3.84,3.84,0,0,1-1.164-.941A4.709,4.709,0,0,1,.455,6.025,5.216,5.216,0,0,1,.128,4.334,5.018,5.018,0,0,1,.364,2.651a4.258,4.258,0,0,1,.731-1.367A3.423,3.423,0,0,1,2.207.372,2.956,2.956,0,0,1,3.59.052Z" transform="translate(274.267 97.22)" fill="#2f2e41"/>
  <path id="Path_162" data-name="Path 162" d="M9.663.141h0A7.984,7.984,0,0,0,5.951.994a9.216,9.216,0,0,0-3,2.435A11.391,11.391,0,0,0,.98,7.084,13.342,13.342,0,0,0,.335,11.59L.461,16.5l5.025.033,2.267-4.876.846,4.9,15.056.1-4.144-4.89a13.817,13.817,0,0,0-.868-4.48A12.489,12.489,0,0,0,16.505,3.6a10.251,10.251,0,0,0-3.1-2.505A8.394,8.394,0,0,0,9.663.141Z" transform="translate(255.857 96.522)" fill="#2f2e41"/>
  <path id="Path_163" data-name="Path 163" d="M.139,4.637A6.9,6.9,0,0,1,.988,2.573,5.673,5.673,0,0,1,2.342,1.064,4.759,4.759,0,0,1,4.056.223,4.5,4.5,0,0,1,5.982.157,5.13,5.13,0,0,1,7.6.831,7.405,7.405,0,0,1,9.032,2.015,10.719,10.719,0,0,1,10.248,3.57a13.821,13.821,0,0,1,.976,1.786c.282.618.529,1.255.754,1.9s.426,1.307.616,1.972.371,1.335.552,2,.364,1.338.561,2,.412,1.324.653,1.972a19.857,19.857,0,0,0,.808,1.889,13.205,13.205,0,0,0,1.005,1.715,9.174,9.174,0,0,0,1.245,1.451,6.049,6.049,0,0,0,1.52,1.04,5.132,5.132,0,0,0,1.677.483,3.957,3.957,0,0,0,1.65-.166,3.549,3.549,0,0,0,1.438-.906,10.071,10.071,0,0,1-.567,2.641,8.707,8.707,0,0,1-1.183,2.219,7.238,7.238,0,0,1-1.694,1.651,6.173,6.173,0,0,1-2.1.937,5.881,5.881,0,0,1-2.261.083,6.446,6.446,0,0,1-2.153-.756,7.67,7.67,0,0,1-1.891-1.513,9.181,9.181,0,0,1-1.476-2.184,11.717,11.717,0,0,1-.627-1.582c-.174-.545-.316-1.1-.438-1.672S9.091,19.39,9,18.811s-.176-1.159-.262-1.734-.176-1.156-.283-1.733-.229-1.149-.377-1.709A14.152,14.152,0,0,0,7.546,12,9.718,9.718,0,0,0,6.8,10.5,6.415,6.415,0,0,0,5.76,9.217a5.3,5.3,0,0,0-1.272-.9A3.644,3.644,0,0,0,3.1,7.922a2.739,2.739,0,0,0-1.369.258Z" transform="translate(279.591 94.022)" fill="#2f2e41"/>
  <g transform="matrix(1, 0, 0, 1, 0, 0)" filter="url(#Path_164)">
    <path id="Path_164-2" data-name="Path 164" d="M25.631,53.03h0a10.869,10.869,0,0,1-4.75-1.131,12.7,12.7,0,0,1-3.929-3.045,14.886,14.886,0,0,1-2.7-4.506,16.148,16.148,0,0,1-1.053-5.5c-.01-.638-.02-1.239-.029-1.785s-.016-1.038-.023-1.458-.012-.77-.015-1.032-.006-.435-.006-.5a62.664,62.664,0,0,1,.308-6.5,61.176,61.176,0,0,1,.972-6.352,59.072,59.072,0,0,1,1.619-6.134,56.492,56.492,0,0,1,2.248-5.846,53.931,53.931,0,0,0-3.75,7.108A57.6,57.6,0,0,0,11.8,24.06a60.652,60.652,0,0,0-1.658,8.175,62.761,62.761,0,0,0-.541,8.48c0,.069,0,.244.006.506s.009.613.015,1.034.014.915.022,1.462.018,1.149.028,1.789a16.146,16.146,0,0,0,1.054,5.514,14.858,14.858,0,0,0,2.7,4.51,12.69,12.69,0,0,0,3.943,3.043,10.9,10.9,0,0,0,4.769,1.121h0a10.538,10.538,0,0,0,3.9-.743,11.374,11.374,0,0,0,3.372-2.092,12.967,12.967,0,0,0,2.6-3.22,14.761,14.761,0,0,0,1.6-4.132,11.885,11.885,0,0,1-1.741,1.517,11.086,11.086,0,0,1-1.946,1.109,10.571,10.571,0,0,1-2.1.677A10.39,10.39,0,0,1,25.631,53.03Z" transform="translate(129.53 62.36)" fill="#3f3d56"/>
  </g>
  <g transform="matrix(1, 0, 0, 1, 0, 0)" filter="url(#Path_165)">
    <path id="Path_165-2" data-name="Path 165" d="M26.225,15.932A17.683,17.683,0,0,1,31.243,17.1a19.962,19.962,0,0,1,4.611,2.566,23.267,23.267,0,0,1,4.021,3.82,26.971,26.971,0,0,1,3.247,4.93,30.239,30.239,0,0,1,2.228,5.709,32.351,32.351,0,0,1,.978,12.245,30.465,30.465,0,0,1-1.294,6.012,26.645,26.645,0,0,0,3.024-6.293,30.5,30.5,0,0,0,1.422-7.006,32.355,32.355,0,0,0-.209-7.282,31.534,31.534,0,0,0-1.876-7.124,28.356,28.356,0,0,0-3.4-6.248,24.055,24.055,0,0,0-4.56-4.783,20.038,20.038,0,0,0-5.417-3.072,17.4,17.4,0,0,0-5.972-1.1,16.877,16.877,0,0,0-5.937,1.046A18.6,18.6,0,0,0,16.8,13.566,22.107,22.107,0,0,0,12.43,18.39a26.517,26.517,0,0,0-3.106,6.354,22.535,22.535,0,0,1,3.484-4.03,19.5,19.5,0,0,1,4.1-2.867,17.509,17.509,0,0,1,4.531-1.621,16.839,16.839,0,0,1,4.791-.293Z" transform="translate(156.14 65.17)" fill="#3f3d56"/>
  </g>
  <g transform="matrix(1, 0, 0, 1, 0, 0)" filter="url(#Path_166)">
    <path id="Path_166-2" data-name="Path 166" d="M25.849,64.9h0a10.212,10.212,0,0,1-4.644-.937,11.888,11.888,0,0,1-3.864-2.883,14.448,14.448,0,0,1-2.685-4.4,16.5,16.5,0,0,1-1.109-5.48c-.088-2.725-.175-5.607-.257-8.421s-.156-5.557-.222-8.009-.12-4.608-.161-6.249-.067-2.764-.074-3.146q-.027-1.4.031-2.786t.2-2.769q.142-1.378.368-2.741t.535-2.7h0q.185-.672.39-1.335t.43-1.316q.225-.653.471-1.295t.51-1.273q-.825,1.349-1.561,2.769t-1.382,2.9q-.645,1.483-1.2,3.024t-1.005,3.132h0q-.311,1.344-.538,2.71t-.37,2.75q-.143,1.383-.2,2.778t-.032,2.794c.007.384.033,1.51.073,3.155s.095,3.809.159,6.266.139,5.21.22,8.031.167,5.713.255,8.446A16.5,16.5,0,0,0,11.3,63.408,14.42,14.42,0,0,0,14,67.812a11.872,11.872,0,0,0,3.877,2.878,10.233,10.233,0,0,0,4.66.924h0a10.339,10.339,0,0,0,3.821-.9,11.732,11.732,0,0,0,3.3-2.235,13.814,13.814,0,0,0,2.555-3.341,15.833,15.833,0,0,0,1.58-4.224,12.573,12.573,0,0,1-1.723,1.646,11.438,11.438,0,0,1-1.932,1.232,10.581,10.581,0,0,1-2.091.79A10.088,10.088,0,0,1,25.849,64.9Z" transform="translate(164.02 137.19)" fill="#3f3d56"/>
  </g>
  <path id="Path_167" data-name="Path 167" d="M.294,24.125,5.8,23.751,8.161,0,.058.465Z" transform="translate(68.141 254.1)" fill="#ffb8b8"/>
  <g transform="matrix(1, 0, 0, 1, 0, 0)" filter="url(#Path_168)">
    <path id="Path_168-2" data-name="Path 168" d="M27.332,17.41l-17.24,1.215-.074-7.469,10.6-.712a5.836,5.836,0,0,1,2.59.41A6.144,6.144,0,0,1,25.336,12.3a6.983,6.983,0,0,1,1.444,2.26,7.924,7.924,0,0,1,.552,2.85Z" transform="translate(57.21 265.39)" fill="#2f2e41"/>
  </g>
  <path id="Path_169" data-name="Path 169" d="M.258,24.347l5.6-.381L8.307,0,.059.473Z" transform="translate(48.19 255.234)" fill="#ffb8b8"/>
  <g transform="matrix(1, 0, 0, 1, 0, 0)" filter="url(#Path_170)">
    <path id="Path_170-2" data-name="Path 170" d="M27.629,17.477,10.081,18.713l-.062-7.537,10.794-.725a5.98,5.98,0,0,1,2.635.412,6.235,6.235,0,0,1,2.158,1.459A7.017,7.017,0,0,1,27.073,14.6a7.925,7.925,0,0,1,.557,2.875Z" transform="translate(37.21 266.71)" fill="#2f2e41"/>
  </g>
  <path id="Path_171" data-name="Path 171" d="M8.372,83.035,2.9,83.071a1.909,1.909,0,0,1-.818-.177,1.962,1.962,0,0,1-.362-.218,2.059,2.059,0,0,1-.315-.3,2.193,2.193,0,0,1-.253-.364A2.34,2.34,0,0,1,.968,81.6a2.478,2.478,0,0,1-.1-.446,2.586,2.586,0,0,1-.019-.468L6.717.907l29.6,7.911,2.794-.941L31.05,77.714a2.637,2.637,0,0,1-.224.77,2.5,2.5,0,0,1-.426.638,2.255,2.255,0,0,1-.583.457,2,2,0,0,1-.7.227l-5.79.67a1.887,1.887,0,0,1-.436,0,1.863,1.863,0,0,1-.419-.095,1.9,1.9,0,0,1-.389-.189,1.992,1.992,0,0,1-.346-.279,2.13,2.13,0,0,1-.284-.355,2.29,2.29,0,0,1-.207-.412,2.444,2.444,0,0,1-.125-.454,2.567,2.567,0,0,1-.038-.482l.642-42.077a.836.836,0,0,0-.044-.285.765.765,0,0,0-.131-.237.684.684,0,0,0-.2-.167.632.632,0,0,0-.251-.076.639.639,0,0,0-.261.032.7.7,0,0,0-.228.131.786.786,0,0,0-.174.211.848.848,0,0,0-.1.273l-9.79,45a2.616,2.616,0,0,1-.261.772,2.479,2.479,0,0,1-.464.625,2.239,2.239,0,0,1-.618.429,2,2,0,0,1-.722.185l-.029,0H8.372Z" transform="translate(44.911 188.877)" fill="#2f2e41"/>
  <path id="Path_193" data-name="Path 193" d="M10.982.122a10.149,10.149,0,0,1,4.243.985A11.187,11.187,0,0,1,18.7,3.7a12.386,12.386,0,0,1,2.359,3.808,13.071,13.071,0,0,1,.9,4.645,12.859,12.859,0,0,1-.8,4.639,11.888,11.888,0,0,1-2.28,3.79,10.7,10.7,0,0,1-3.424,2.56,9.947,9.947,0,0,1-4.232.94,10.134,10.134,0,0,1-4.267-.946,11.165,11.165,0,0,1-3.513-2.583,12.374,12.374,0,0,1-2.393-3.833,13.07,13.07,0,0,1-.908-4.69A12.851,12.851,0,0,1,.962,7.349a11.865,11.865,0,0,1,2.32-3.8A10.678,10.678,0,0,1,6.741,1.016,9.94,9.94,0,0,1,10.982.122Z" transform="translate(56.682 101.535)" fill="#ffb8b8"/>
  <path id="Path_172" data-name="Path 172" d="M.229,19.268,1.7,48.127l.533,10.526a2.481,2.481,0,0,0,.125.673,2.339,2.339,0,0,0,.294.588,2.159,2.159,0,0,0,.437.467,2,2,0,0,0,.555.31l28.45,10.47a1.8,1.8,0,0,0,.173.056,1.773,1.773,0,0,0,.536.059,1.865,1.865,0,0,0,.411-.058,1.94,1.94,0,0,0,.39-.146,2.053,2.053,0,0,0,.357-.229,2.191,2.191,0,0,0,.313-.306,2.331,2.331,0,0,0,.253-.369,2.45,2.45,0,0,0,.181-.412,2.538,2.538,0,0,0,.128-.9L33.114,17.626a19.7,19.7,0,0,0-1.165-6.147,18.6,18.6,0,0,0-2.9-5.215,16.974,16.974,0,0,0-4.309-3.87,15.52,15.52,0,0,0-5.4-2.1L19.138.256,18.931.222,18.723.19,18.515.159A14.7,14.7,0,0,0,14.978.111,14.88,14.88,0,0,0,11.551.9a15.455,15.455,0,0,0-3.2,1.585A16.34,16.34,0,0,0,5.514,4.825a17.845,17.845,0,0,0-2.4,3.047A18.9,18.9,0,0,0,1.4,11.386a19.7,19.7,0,0,0-.98,3.844,20.079,20.079,0,0,0-.195,4.038Z" transform="translate(49.546 129.835)" fill="#ccc"/>
  <path id="Path_173" data-name="Path 173" d="M12.029,22.031a4.086,4.086,0,0,1-.944-.438,4.369,4.369,0,0,1-.815-.663,4.722,4.722,0,0,1-.656-.857,5.076,5.076,0,0,1-.465-1.019,5.357,5.357,0,0,1-.24-1.115A5.486,5.486,0,0,1,9.136,15.7a5.243,5.243,0,0,1,.458-1.035L.008.929,8.135.2l7.814,13.116A4.663,4.663,0,0,1,17,14.568a5.2,5.2,0,0,1,.586,1.544,5.5,5.5,0,0,1,.086,1.681,5.422,5.422,0,0,1-.445,1.667,5.009,5.009,0,0,1-.93,1.4,4.482,4.482,0,0,1-1.262.938,4.07,4.07,0,0,1-1.467.412A3.937,3.937,0,0,1,12.029,22.031Z" transform="translate(82.833 172.837)" fill="#ffb8b8"/>
  <path id="Path_174" data-name="Path 174" d="M16.359,47.266a1.938,1.938,0,0,1-.36-.2,2.055,2.055,0,0,1-.314-.273,2.192,2.192,0,0,1-.259-.337,2.328,2.328,0,0,1-.2-.392L.535,8.582A6.66,6.66,0,0,1,.467,3.915a6.162,6.162,0,0,1,1.14-1.961A5.472,5.472,0,0,1,3.4.586,5,5,0,0,1,7.614.541,5.521,5.521,0,0,1,9.387,1.807a6.154,6.154,0,0,1,1.245,1.986L25.22,41.106a2.491,2.491,0,0,1,.169.882,2.534,2.534,0,0,1-.141.859,2.361,2.361,0,0,1-.418.74,2.077,2.077,0,0,1-.662.525l-6.241,3.1a1.91,1.91,0,0,1-.384.144,1.836,1.836,0,0,1-1.185-.094Z" transform="translate(71.775 137.822)" fill="#ccc"/>
  <path id="Path_175" data-name="Path 175" d="M.624,31.082,14.145,1.567a2.352,2.352,0,0,1,.53-.741,2.1,2.1,0,0,1,.72-.443,1.957,1.957,0,0,1,.817-.112,1.985,1.985,0,0,1,.821.252l19.83,11.166a2.157,2.157,0,0,1,.658.579,2.454,2.454,0,0,1,.395.789,2.633,2.633,0,0,1,.1.9,2.586,2.586,0,0,1-.221.9L24.607,44.207a2.421,2.421,0,0,1-.526.754,2.147,2.147,0,0,1-.717.459,1.932,1.932,0,0,1-1.635-.108l-20.148-11A2.18,2.18,0,0,1,.9,33.724a2.453,2.453,0,0,1-.406-.8,2.638,2.638,0,0,1,.129-1.84Z" transform="translate(64.332 153.274)" fill="#3f3d56"/>
  <path id="Path_176" data-name="Path 176" d="M20.436,11.883a5.1,5.1,0,0,0-.49-1.017,4.782,4.782,0,0,0-.681-.852,4.467,4.467,0,0,0-.841-.656,4.213,4.213,0,0,0-.969-.429A4.068,4.068,0,0,0,15.39,8.86a4.221,4.221,0,0,0-.985.357,4.472,4.472,0,0,0-.9.606L.046.3.1,9.49,12.889,17.1a4.536,4.536,0,0,0,1.25,1.072,4.184,4.184,0,0,0,1.467.515,4.093,4.093,0,0,0,1.541-.062,4.3,4.3,0,0,0,1.473-.659A4.743,4.743,0,0,0,19.8,16.782a5.222,5.222,0,0,0,.725-1.506,5.482,5.482,0,0,0,.227-1.683,5.4,5.4,0,0,0-.316-1.711Z" transform="translate(53.679 158.867)" fill="#ffb8b8"/>
  <path id="Path_177" data-name="Path 177" d="M16.715,39.04l-11.1-9.352A7.464,7.464,0,0,1,3.9,28.825a7.915,7.915,0,0,1-1.457-1.272,8.43,8.43,0,0,1-1.137-1.616,8.9,8.9,0,0,1-.759-1.895,9.256,9.256,0,0,1-.178-4.076,9.1,9.1,0,0,1,.578-1.942,8.692,8.692,0,0,1,1-1.759l9.9-14.4A4.641,4.641,0,0,1,13.085.7a4.285,4.285,0,0,1,1.488-.6,4.159,4.159,0,0,1,1.586,0,4.314,4.314,0,0,1,1.532.624A4.714,4.714,0,0,1,18.925,1.9a5.166,5.166,0,0,1,.761,1.524,5.421,5.421,0,0,1,.24,1.714A5.354,5.354,0,0,1,19.6,6.889L11.855,21.067l11.608,5.851a2.05,2.05,0,0,1,.381.249,2.174,2.174,0,0,1,.321.328,2.305,2.305,0,0,1,.252.395,2.423,2.423,0,0,1,.172.449,2.5,2.5,0,0,1,.082.479,2.535,2.535,0,0,1-.011.483,2.506,2.506,0,0,1-.1.47,2.424,2.424,0,0,1-.192.442L19.793,38.4a2.331,2.331,0,0,1-.271.387,2.2,2.2,0,0,1-.334.314,2.079,2.079,0,0,1-.385.232,1.981,1.981,0,0,1-.425.141l-.009,0-.009,0-.009,0-.009,0a1.925,1.925,0,0,1-.857-.033,1.977,1.977,0,0,1-.4-.158A2.065,2.065,0,0,1,16.715,39.04Z" transform="translate(40.584 134.111)" fill="#ccc"/>
  <path id="Path_178" data-name="Path 178" d="M5.68,25.039a1.144,1.144,0,0,1-.048-.471,1.121,1.121,0,0,1,.049-.23,1.072,1.072,0,0,1,.1-.213,1.012,1.012,0,0,1,.139-.183.952.952,0,0,1,.171-.142.9.9,0,0,1,.2-.1A.876.876,0,0,1,6.5,23.66a2.041,2.041,0,0,1,.442.077,2.114,2.114,0,0,1,.416.171,2.221,2.221,0,0,1,.377.258,2.346,2.346,0,0,1,.327.338q.151.189.313.364t.336.338q.173.162.357.31t.377.281a1.47,1.47,0,0,0,.425.155,1.28,1.28,0,0,0,.437.012.974.974,0,0,0,.393-.147.877.877,0,0,0,.292-.324,1.186,1.186,0,0,0,.127-.422,1.985,1.985,0,0,0-.006-.464,3.966,3.966,0,0,0-.091-.48c-.039-.16-.085-.318-.13-.47q-.169-.581-.3-1.173t-.23-1.19q-.1-.6-.157-1.2t-.083-1.212c-.017-.452-.016-.909.009-1.362a10.89,10.89,0,0,1,.152-1.338,7.781,7.781,0,0,1,.333-1.262,5.667,5.667,0,0,1,.552-1.133,4.818,4.818,0,0,1,1.028-1.15,5.279,5.279,0,0,1,1.281-.761,6.4,6.4,0,0,1,1.435-.409A7.582,7.582,0,0,1,16.4,11.37a11.546,11.546,0,0,1,1.481.153c.492.081.983.187,1.473.3s.979.247,1.469.374.978.252,1.467.362a4.936,4.936,0,0,0,.521.091,2.527,2.527,0,0,0,.521.01,1.413,1.413,0,0,0,.478-.125,1.077,1.077,0,0,0,.391-.316,1.341,1.341,0,0,0,.24-.519,2.319,2.319,0,0,0,.053-.611,4.493,4.493,0,0,0-.076-.653c-.04-.219-.091-.436-.145-.643-.138-.537-.278-1.078-.429-1.615s-.315-1.07-.5-1.591a14.453,14.453,0,0,0-.631-1.515,9.787,9.787,0,0,0-.821-1.389A9.115,9.115,0,0,0,20.78,2.446a8.648,8.648,0,0,0-1.287-.989A8.214,8.214,0,0,0,18.065.742,7.868,7.868,0,0,0,16.532.326a11.7,11.7,0,0,0-5.964.666,14.925,14.925,0,0,0-2.256.966A15.4,15.4,0,0,0,6.23,3.283,16.015,16.015,0,0,0,4.358,4.943,16.718,16.718,0,0,0,2.73,6.914,14.27,14.27,0,0,0,1.415,9.3a14.954,14.954,0,0,0-.852,2.61,15.446,15.446,0,0,0-.371,2.752,15.668,15.668,0,0,0,.129,2.814A14.2,14.2,0,0,0,.9,19.867a13.869,13.869,0,0,0,.965,2.215,13.344,13.344,0,0,0,1.322,1.984,12.7,12.7,0,0,0,1.646,1.7Z" transform="translate(53.905 96.592)" fill="#2f2e41"/>
  <g transform="matrix(1, 0, 0, 1, 0, 0)" filter="url(#Path_179)">
    <path id="Path_179-2" data-name="Path 179" d="M20.287,37.41a12.522,12.522,0,0,1-2.786-1.9,15.067,15.067,0,0,1-2.336-2.667,18.033,18.033,0,0,1-1.8-3.312A20.811,20.811,0,0,1,12.195,25.7a22.723,22.723,0,0,1-.455-4.1,23.235,23.235,0,0,1,.279-4.092A22.214,22.214,0,0,1,13,13.591a19.926,19.926,0,0,1,1.664-3.573,17.17,17.17,0,0,0-2.722,3.7,20.675,20.675,0,0,0-1.8,4.445,23.1,23.1,0,0,0-.52,9.976,20.971,20.971,0,0,0,1.37,4.729,17.587,17.587,0,0,0,2.293,3.93,14.078,14.078,0,0,0,3.048,2.917,11.461,11.461,0,0,0,3.632,1.695,10.421,10.421,0,0,0,3.866.275,11.157,11.157,0,0,0,3.715-1.127A13.457,13.457,0,0,0,30.9,38.14a16.842,16.842,0,0,0,2.77-3.585,13.858,13.858,0,0,1-3.055,2.437,11.49,11.49,0,0,1-3.367,1.318,10.423,10.423,0,0,1-3.5.154A10.81,10.81,0,0,1,20.287,37.41Z" transform="translate(169.92 233.78)" fill="#3f3d56"/>
  </g>
</svg>
